<?xml version="1.0"?>
<svg xmlns="http://www.w3.org/2000/svg" version="1.2" baseProfile="tiny" width="800" height="692" viewBox="0 0 800 692" stroke-linecap="round" stroke-linejoin="round">
<g id="brasil" fill="#000000">
<path d="M 459.69 542.23 459.68 542.22 459.71 542.2 459.69 542.23 Z M 461.11 540.72 461.2 540.73 461.19 540.75 461.11 540.72 Z M 461.92 538.78 461.97 538.83 461.96 538.86 461.92 538.78 Z M 462.8 538.26 462.81 538.22 462.84 538.23 462.8 538.26 Z M 463.02 538.04 462.74 538.17 462.74 538.06 463.02 538.04 Z M 483.85 526.86 483.76 526.92 483.77 526.64 483.85 526.86 Z M 477.49 525.8 477.49 525.8 477.48 525.8 477.49 525.8 Z M 478.15 525.49 478.15 525.49 478.14 525.5 478.15 525.49 Z M 477.98 525.46 478.03 525.44 478.03 525.47 477.98 525.46 Z M 478.05 525.44 478.05 525.44 478.05 525.44 478.05 525.44 Z M 477.91 525.23 477.9 525.23 477.9 525.23 477.91 525.23 Z M 478.28 525.03 478.24 525.03 478.25 525.01 478.28 525.03 Z M 478.31 524.98 478.26 524.97 478.27 524.93 478.31 524.98 Z M 481.48 524.84 481.48 524.87 481.43 524.87 481.48 524.84 Z M 481.49 524.84 481.52 524.83 481.5 524.86 481.49 524.84 Z M 477.95 524.73 477.95 524.72 477.95 524.72 477.95 524.73 Z M 478.37 524.62 478.4 524.6 478.4 524.62 478.37 524.62 Z M 478.04 524.4 478.05 524.4 478.05 524.4 478.04 524.4 Z M 479.98 522.72 479.96 522.71 479.98 522.71 479.98 522.72 Z M 483.5 522.41 483.5 522.4 483.52 522.41 483.5 522.41 Z M 481.7 521.67 481.69 521.65 481.72 521.66 481.7 521.67 Z M 416.65 443.6 438.09 446.85 444.47 455.31 445.76 450.36 469.76 446.81 477.83 472.64 486.72 473.48 482.93 488.28 489.42 498.78 516.84 490 528.23 494.85 517.08 500.22 518.28 507.06 516.2 507.4 515.03 506.45 506.2 511.58 505.92 515.21 499.86 514.02 497.01 514.19 493.48 515.44 492.56 516.88 492.88 517.26 492.45 517.61 492.41 517.82 492.5 518.06 491.35 518.11 491.03 518.29 491.07 518.47 490.78 518.6 490.72 518.99 490.5 518.5 489.98 518.61 490.11 517.85 489.39 517.71 489.2 517.9 489.04 517.68 481.22 521.83 479.25 523.08 478.11 524.01 477.72 524.92 477.89 525.55 475.55 526.88 474.02 528.32 467.57 531.98 463.89 534.78 458.6 541.43 455.93 535.5 450.05 536.82 450.07 530.08 437.27 530.13 439.12 524.28 425.24 498.73 370.09 493.85 382.96 484.74 401.16 453.85 416.65 443.6 Z M 489.21 517.91 489.21 517.9 489.22 517.9 489.21 517.91 Z M 489.48 517.78 489.47 517.77 489.49 517.75 489.48 517.78 Z M 492.86 524.02 492.88 524.01 492.85 524.08 492.86 524.02 Z M 492.54 523.85 492.48 523.9 492.49 523.88 492.54 523.85 Z M 501.38 519.94 500.91 520.22 501.18 519.83 501.38 519.94 Z M 500.98 519.93 500.98 519.93 500.99 519.91 500.98 519.93 Z M 500.93 519.88 500.95 519.87 500.95 519.88 500.93 519.88 Z M 501.75 519.8 501.76 519.79 501.76 519.79 501.75 519.8 Z M 501.67 519.68 501.68 519.68 501.68 519.7 501.67 519.68 Z M 500.73 519.64 500.72 519.64 500.73 519.63 500.73 519.64 Z M 500.71 519.59 500.7 519.59 500.72 519.57 500.71 519.59 Z M 501.82 519.54 501.84 519.55 501.8 519.58 501.82 519.54 Z M 490.93 519.1 490.93 519.1 490.94 519.1 490.93 519.1 Z M 491.1 519.15 490.99 519.11 491.11 519.01 491.1 519.15 Z M 490.52 518.72 490.5 518.72 490.51 518.71 490.52 518.72 Z M 490.54 518.66 490.56 518.66 490.54 518.68 490.54 518.66 Z M 491.84 518.41 491.89 518.36 491.87 518.4 491.84 518.41 Z M 489.99 518.39 489.97 518.39 489.97 518.36 489.99 518.39 Z M 491.2 518.25 491.2 518.24 491.24 518.26 491.2 518.25 Z M 492.51 517.79 492.46 517.78 492.52 517.7 492.51 517.79 Z M 492.61 517.69 492.59 517.7 492.6 517.69 492.61 517.69 Z M 492.75 517.65 492.75 517.64 492.77 517.63 492.75 517.65 Z M 492.71 516.95 492.71 516.95 492.71 516.93 492.71 516.95 Z M 492.76 516.71 492.78 516.73 492.76 516.74 492.76 516.71 Z M 493.29 516.32 493.32 516.31 493.31 516.33 493.29 516.32 Z M 493.44 516.17 493.45 516.19 493.42 516.19 493.44 516.17 Z M 493.34 515.94 493.35 515.95 493.32 515.97 493.34 515.94 Z M 499.59 515.94 499.49 515.9 499.54 515.74 499.59 515.94 Z M 495.27 515.14 495.28 515.14 495.26 515.16 495.27 515.14 Z M 501.53 514.81 501.6 514.74 501.6 514.76 501.53 514.81 Z M 500.73 514.8 500.56 514.73 500.67 514.66 500.73 514.8 Z M 500.71 514.57 500.83 514.46 500.94 514.45 500.71 514.57 Z M 499.25 514.22 499.24 514.21 499.28 514.2 499.25 514.22 Z M 500.19 514.19 500.2 514.18 500.2 514.18 500.19 514.19 Z M 500.07 514.15 500.07 514.15 500.08 514.14 500.07 514.15 Z M 508.09 516.86 508.08 516.85 508.09 516.85 508.09 516.86 Z M 508.14 516.82 508.13 516.82 508.16 516.8 508.14 516.82 Z M 508.16 516.77 508.17 516.78 508.16 516.79 508.16 516.77 Z M 507.68 516.76 507.65 516.8 507.65 516.76 507.68 516.76 Z M 508.73 516.27 508.72 516.25 508.75 516.24 508.73 516.27 Z M 508.82 516.26 508.8 516.26 508.81 516.25 508.82 516.26 Z M 508.34 515.74 508.35 515.74 508.34 515.76 508.34 515.74 Z M 506.03 515.63 506.01 515.63 506.02 515.62 506.03 515.63 Z M 504.17 515.64 504.11 515.68 504.09 515.57 504.17 515.64 Z M 508.48 515.59 508.47 515.59 508.49 515.57 508.48 515.59 Z M 507.45 516.79 507.58 513.31 509.34 514.27 508.26 515.85 508.58 516.32 509.46 516.51 507.45 516.79 Z M 505.57 515.24 505.57 515.25 505.56 515.25 505.57 515.24 Z M 506.47 515.19 506.48 515.19 506.46 515.22 506.47 515.19 Z M 506.1 515.18 506.11 515.18 506.1 515.18 506.1 515.18 Z M 503.81 515.2 503.81 515.19 503.82 515.17 503.81 515.2 Z M 510.65 515.17 510.69 515.14 510.7 515.18 510.65 515.17 Z M 505.09 515.1 505.09 515.11 505.09 515.1 505.09 515.1 Z M 506.22 514.97 506.21 514.97 506.22 514.97 506.22 514.97 Z M 506.21 514.95 506.21 514.96 506.2 514.95 506.21 514.95 Z M 506.22 514.93 506.22 514.93 506.23 514.93 506.22 514.93 Z M 509.37 514.94 509.34 514.9 509.38 514.88 509.37 514.94 Z M 511.33 514.9 510.64 514.87 510.56 514.72 510.78 514.53 511.33 514.9 Z M 508.4 511.17 508.18 511.18 508.25 511.03 508.4 511.17 Z M 507.93 510.91 507.92 510.92 507.91 510.91 507.93 510.91 Z M 507.91 510.86 507.87 510.86 507.89 510.82 507.91 510.86 Z M 510.84 510.64 510.51 510.59 510.61 510.44 510.84 510.64 Z M 510.72 510.41 510.74 510.41 510.73 510.44 510.72 510.41 Z M 510.66 510.26 510.66 510.26 510.66 510.28 510.66 510.26 Z M 509.57 510.28 509.53 510.27 509.58 510.24 509.57 510.28 Z M 510.66 510.23 510.65 510.22 510.66 510.21 510.66 510.23 Z M 510.67 509.98 510.68 509.97 510.68 509.98 510.67 509.98 Z M 509.62 509.97 509.61 509.94 509.68 509.97 509.62 509.97 Z M 513.28 513.84 513.14 514 512.98 513.73 513.28 513.84 Z M 512.88 513.58 512.81 513.62 512.8 513.6 512.88 513.58 Z M 513 513.54 513.05 513.54 513 513.62 513 513.54 Z M 512.01 510.52 512 510.5 512.04 510.48 512.01 510.52 Z M 512.96 510.26 512.97 510.26 512.97 510.26 512.96 510.26 Z M 512.83 510.25 512.82 510.23 512.97 510.16 512.83 510.25 Z M 512.71 509.99 512.04 510.47 511.98 509.84 512.71 509.99 Z M 513 510.15 512.99 510.15 512.99 510.15 513 510.15 Z M 512.7 509.68 512.66 509.71 512.66 509.69 512.7 509.68 Z M 511.59 509.36 511.6 509.36 511.59 509.37 511.59 509.36 Z M 512.47 508.82 512.48 508.82 512.48 508.82 512.47 508.82 Z M 512.37 508.82 512.37 508.82 512.36 508.81 512.37 508.82 Z M 515.13 508.1 515.07 508.08 515.08 508.07 515.13 508.1 Z M 515.86 508 515.88 508 515.87 508.03 515.86 508 Z M 516.06 507.98 515.88 508.06 516.01 507.77 516.06 507.98 Z M 513.25 507.86 513.25 507.84 513.26 507.84 513.25 507.86 Z M 514.53 507.83 514.54 507.83 514.54 507.83 514.53 507.83 Z M 516.05 507.7 516.05 507.68 516.06 507.68 516.05 507.7 Z M 515.22 507.67 515.22 507.67 515.21 507.66 515.22 507.67 Z M 515.96 507.59 515.97 507.6 515.94 507.61 515.96 507.59 Z M 516.06 507.55 516.1 507.52 516.04 507.67 516.06 507.55 Z M 514.49 507.45 514.49 507.45 514.49 507.45 514.49 507.45 Z M 515.38 507.43 515.37 507.42 515.38 507.4 515.38 507.43 Z M 514.53 507.38 514.54 507.39 514.48 507.41 514.53 507.38 Z M 514.41 507.38 514.27 507.41 514.35 507.31 514.41 507.38 Z M 514.55 507.34 514.55 507.35 514.55 507.34 514.55 507.34 Z M 515.39 507.32 515.4 507.33 515.36 507.36 515.39 507.32 Z M 515.1 507.25 515.04 507.26 515.12 507.17 515.1 507.25 Z M 515.3 506.79 515.29 506.78 515.3 506.78 515.3 506.79 Z M 515.11 506.75 515.12 506.75 515.1 506.78 515.11 506.75 Z M 515.01 506.49 515.02 506.48 515.03 506.5 515.01 506.49 Z" fill-rule="evenodd"/>
<path d="M 275.08 212.32 317.24 129.19 305.45 132.3 271.03 105.85 267.7 72.12 277.78 65.63 299.25 57.9 318.9 61.39 319.28 49.21 337.67 47.31 341.1 62.46 364.41 71.88 373.14 96.37 387.88 115.57 421 81.55 422.03 87.84 433.78 87.29 430.3 91.2 435.7 97.23 453.34 98.31 451.3 107.29 452.86 109.78 455.16 110.12 460.72 106.05 461.83 104.86 462 104.48 461.87 103.82 463.18 105.93 465.59 103.31 466.91 106.36 472.8 104.39 479.08 109.23 480.7 106.93 484.47 110.99 485.51 111.21 488.19 109.17 487.22 110.15 487.54 110.46 486.96 111.09 487.3 111.83 487.96 112.03 488.67 111.48 488.97 112.01 490.04 111.98 492.11 109.51 491.49 113.33 494.46 112.13 476.53 162.05 447 188.44 457.91 192.92 456.26 199 438.97 216.31 438.86 238.75 421.02 267.87 305.51 260.18 290.74 248.69 275.08 212.32 Z M 443.11 96.97 443.23 97.21 442.99 97.12 443.11 96.97 Z M 443.68 97.06 443.59 97.07 443.65 96.88 443.68 97.06 Z M 443.12 96.81 443.1 96.91 443.02 96.83 443.12 96.81 Z M 440.43 96.69 439.95 96.49 440.03 96.25 440.43 96.69 Z M 434.11 91.21 434.73 91.84 434.42 91.87 434.11 91.21 Z M 431.48 90.42 432.02 90.86 430.92 91.25 431.48 90.42 Z M 432.69 90.21 432.86 90.21 432.63 90.66 432.69 90.21 Z M 432.03 89.57 432.81 89.55 432.48 89.97 432.03 89.57 Z M 452.79 108.14 452.7 108.15 452.72 108.12 452.79 108.14 Z M 460.49 105.96 460.49 106.12 460.42 105.91 460.49 105.96 Z M 460.08 105.94 460.14 105.56 460.25 105.65 460.08 105.94 Z M 463.17 105.46 463.15 105.74 463.08 105.66 463.17 105.46 Z M 460.63 105.47 460.8 105.33 460.83 105.56 460.63 105.47 Z M 463.24 105.61 463.24 105.45 463.28 105.48 463.24 105.61 Z M 463.49 105.07 463.41 105.33 463.37 105.17 463.49 105.07 Z M 462.96 105.1 462.99 105.08 462.97 105.11 462.96 105.1 Z M 461.95 104.45 461.95 104.48 461.75 104.35 461.95 104.45 Z M 461.86 104.2 461.74 104.06 461.76 104.05 461.86 104.2 Z M 443.63 97.55 443.88 96.72 444.8 96.64 443.63 97.55 Z M 446.94 96.76 447.15 96.86 446.88 97.14 446.94 96.76 Z M 447.42 96.86 447.41 96.93 447.33 96.9 447.42 96.86 Z M 488 111.87 488 111.88 487.98 111.87 488 111.87 Z M 487.96 111.85 487.98 111.86 487.96 111.86 487.96 111.85 Z M 489.09 111.87 488.99 111.94 488.9 111.71 489.09 111.87 Z M 488.04 111.81 487.78 111.83 487.85 111.73 488.04 111.81 Z M 487.95 111.65 487.93 111.65 487.98 111.61 487.95 111.65 Z M 487.18 111.03 487.25 111.05 487.22 111.08 487.18 111.03 Z M 490.28 110.48 490.19 111.67 489.86 111.29 490.28 110.48 Z M 487.3 110.99 487.43 110.9 487.41 110.97 487.3 110.99 Z M 488.56 110.93 488.01 111.37 488.09 111.03 488.56 110.93 Z M 485.01 110.73 484.64 110.82 484.76 110.58 485.01 110.73 Z M 493.17 110.62 493.02 110.73 493.01 110.24 493.17 110.62 Z M 487.58 110.03 487.52 110.02 487.56 109.9 487.58 110.03 Z M 482.92 107.83 482.82 107.71 482.97 107.71 482.92 107.83 Z" fill-rule="evenodd"/>
<path d="M 586.16 468.05 586.16 468.03 586.18 468.04 586.16 468.05 Z M 587.64 465.3 587.64 465.3 587.66 465.28 587.64 465.3 Z M 587.88 465.23 587.89 465.23 587.87 465.24 587.88 465.23 Z M 587.9 465.2 587.93 465.2 587.93 465.21 587.9 465.2 Z M 588.43 463.9 588.5 463.84 588.52 463.89 588.43 463.9 Z M 588.52 462.96 588.51 462.96 588.54 462.93 588.52 462.96 Z M 588.92 462.63 588.97 462.6 588.97 462.62 588.92 462.63 Z M 588.94 462.53 588.98 462.48 588.99 462.51 588.94 462.53 Z M 589.71 462.12 589.71 462.13 589.7 462.13 589.71 462.12 Z M 591.2 461.78 591.19 461.77 591.23 461.76 591.2 461.78 Z M 592.09 460.97 592.09 460.97 592.09 460.96 592.09 460.97 Z M 592.14 460.92 592.13 460.91 592.14 460.91 592.14 460.92 Z M 592.14 460.89 592.14 460.89 592.12 460.91 592.14 460.89 Z M 577.37 450.83 585.02 438.18 581.32 417.58 592.58 410.23 607.71 417.99 607.24 435.83 599.1 446.61 598.42 451.02 596.7 452.51 594.33 458.74 594.23 458.73 594.13 458.84 594.13 458.75 594.07 458.71 593.85 458.77 593.6 458.53 593.45 459 593.57 459.12 593.41 459.18 593.3 459.03 593.02 459.21 593.12 459.32 592.76 459.76 592.61 460.4 592.57 460.41 592.53 460.38 592.49 460.39 592.31 460.67 592.23 460.55 591.97 460.69 590.71 462.36 590.26 461.74 588.47 462.68 584.82 470.5 571.4 467.35 568.93 454.09 577.37 450.83 Z M 592.22 460.64 592.21 460.64 592.24 460.62 592.22 460.64 Z M 592.47 460.52 592.48 460.52 592.47 460.53 592.47 460.52 Z M 592.5 460.44 592.51 460.43 592.51 460.43 592.5 460.44 Z M 592.55 460.41 592.55 460.41 592.56 460.41 592.55 460.41 Z M 592.54 460.41 592.54 460.41 592.54 460.39 592.54 460.41 Z M 592.81 460.13 592.81 460.13 592.8 460.11 592.81 460.13 Z M 592.8 460.09 592.82 460.09 592.81 460.1 592.8 460.09 Z M 592.82 460.08 592.82 460.08 592.82 460.06 592.82 460.08 Z M 592.76 459.94 592.75 459.94 592.75 459.94 592.76 459.94 Z M 592.96 459.57 592.93 459.59 592.93 459.58 592.96 459.57 Z M 593.47 459.21 593.56 459.19 593.53 459.22 593.47 459.21 Z M 593.07 459.2 593.07 459.19 593.07 459.19 593.07 459.2 Z M 593.46 459.18 593.46 459.19 593.46 459.19 593.46 459.18 Z M 594.64 459.88 594.61 459.89 594.61 459.86 594.64 459.88 Z M 595.38 459.48 595.34 459.5 595.34 459.49 595.38 459.48 Z M 595.31 459.46 595.3 459.45 595.31 459.44 595.31 459.46 Z M 593.61 458.89 593.63 458.89 593.62 458.89 593.61 458.89 Z M 593.6 458.88 593.6 458.88 593.6 458.88 593.6 458.88 Z M 593.66 458.88 593.65 458.88 593.65 458.88 593.66 458.88 Z M 594.2 458.8 594.22 458.79 594.21 458.82 594.2 458.8 Z M 593.93 458.77 593.93 458.78 593.91 458.78 593.93 458.77 Z M 593.97 458.78 593.96 458.78 593.97 458.77 593.97 458.78 Z M 594.02 458.76 594.05 458.76 594.03 458.77 594.02 458.76 Z M 594.08 458.73 594.08 458.73 594.08 458.74 594.08 458.73 Z M 593.6 458.59 593.59 458.58 593.6 458.59 593.6 458.59 Z M 594.8 458.5 594.81 458.49 594.81 458.49 594.8 458.5 Z M 595.13 458.33 595.16 458.32 595.16 458.35 595.13 458.33 Z M 595.1 458.35 595.02 458.36 595.04 458.3 595.1 458.35 Z M 595.2 458.34 595.18 458.25 595.2 458.25 595.2 458.34 Z M 594.95 458.3 594.94 458.29 594.95 458.28 594.95 458.3 Z M 594.87 458.08 594.87 458.05 594.9 458.05 594.87 458.08 Z M 595.5 456.76 595.5 456.78 595.46 456.77 595.5 456.76 Z M 596.31 454.93 596.32 454.94 596.29 454.95 596.31 454.93 Z M 596.5 454.25 596.49 454.25 596.5 454.25 596.5 454.25 Z M 596.58 454.21 596.6 454.24 596.56 454.26 596.58 454.21 Z M 596.75 454.06 596.75 454.07 596.75 454.07 596.75 454.06 Z M 596.84 453.87 596.85 453.87 596.85 453.88 596.84 453.87 Z M 596.84 453.76 596.86 453.77 596.85 453.78 596.84 453.76 Z M 596.73 452.89 596.73 452.88 596.73 452.88 596.73 452.89 Z M 596.8 452.68 596.8 452.68 596.79 452.67 596.8 452.68 Z M 596.82 452.66 596.83 452.66 596.83 452.67 596.82 452.66 Z M 596.76 452.53 596.76 452.52 596.76 452.51 596.76 452.53 Z M 791.01 456.81 790.44 456.79 790.22 456.46 791.01 456.81 Z M 798.99 456.26 799 456.3 798.95 456.28 798.99 456.26 Z M 798.92 455.97 798.91 455.84 799 455.88 798.92 455.97 Z M 798.86 455.85 798.86 455.84 798.87 455.84 798.86 455.85 Z M 798.89 455.78 798.88 455.81 798.87 455.82 798.89 455.78 Z M 596.89 453.93 596.9 453.95 596.89 453.96 596.89 453.93 Z M 596.87 453.93 596.87 453.94 596.86 453.94 596.87 453.93 Z M 596.9 453.94 596.93 453.92 596.93 453.92 596.9 453.94 Z M 596.87 453.9 596.88 453.92 596.85 453.93 596.87 453.9 Z M 596.93 453.9 596.91 453.91 596.91 453.9 596.93 453.9 Z M 596.87 453.86 596.89 453.86 596.87 453.88 596.87 453.86 Z M 596.95 453.74 596.95 453.75 596.94 453.75 596.95 453.74 Z M 597.34 453.73 597.35 453.73 597.34 453.74 597.34 453.73 Z M 597.4 453.72 597.39 453.73 597.39 453.73 597.4 453.72 Z M 597.38 453.72 597.37 453.7 597.38 453.7 597.38 453.72 Z M 596.92 453.7 596.94 453.69 596.93 453.7 596.92 453.7 Z M 597 453.42 597 453.44 597 453.44 597 453.42 Z M 597.01 453.44 597.01 453.41 597.01 453.41 597.01 453.44 Z M 596.94 453.39 596.94 453.39 596.95 453.39 596.94 453.39 Z M 597.03 453.36 597.03 453.39 597.02 453.39 597.03 453.36 Z M 597.07 453.36 597.07 453.37 597.06 453.36 597.07 453.36 Z M 597.11 453.22 597.11 453.22 597.11 453.22 597.11 453.22 Z M 597 453.19 597 453.15 597.03 453.17 597 453.19 Z M 597.07 453.16 597.07 453.18 597.06 453.18 597.07 453.16 Z M 596.91 452.95 596.93 452.92 596.94 452.93 596.91 452.95 Z M 596.95 452.94 596.95 452.92 596.97 452.92 596.95 452.94 Z M 596.94 452.77 596.93 452.77 596.93 452.76 596.94 452.77 Z M 599.45 446.94 599.44 446.95 599.44 446.95 599.45 446.94 Z" fill-rule="evenodd"/>
<path d="M 4.2 219.63 70.39 232.57 95.28 253.87 131.02 269.5 97.12 290.33 60.44 288.34 62.61 260.49 49.71 270.07 32.8 270.68 29.73 261.75 14.56 260.28 19.37 252.72 1 227.73 4.2 219.63 Z"/>
<path d="M 70.39 232.57 4.2 219.63 15.91 208.98 14.1 200.59 21.51 184.09 57.89 167.4 72.35 170.07 82.05 113.73 70.21 96.77 70.54 83.9 86.99 82.47 84.72 75.19 74.07 74.82 74.19 63.47 103.83 63.31 103.19 57.8 108.35 61.93 117.37 54.33 122.8 73.25 136.59 80.69 149.35 76.1 150.17 82.43 157.89 73.42 171.48 69.79 177.58 58.8 192.2 55.31 200.33 59.56 204.97 76.74 209.51 99.62 203.79 107.28 214.64 118.53 222.1 121.78 220.19 110.42 226.55 102.7 236.34 109.56 242.67 106.56 247.5 89.2 267.71 89.2 268.1 99.94 277.86 114.11 283.23 113.37 306.7 132.92 317.24 129.19 317.18 129.88 317.09 130.07 315.7 132.06 310.67 136.7 275.08 212.32 281.12 223.93 276.55 249.11 213.07 250.85 197.87 235.07 184.14 234.9 174.91 252.17 162.61 252.89 157.24 260.89 134.85 260.19 127.76 267.46 107.13 259.23 70.39 232.57 Z"/>
<path d="M 518.34 506.88 518.38 506.85 518.37 506.89 518.34 506.88 Z M 519.19 506.82 519.23 506.82 519.21 506.84 519.19 506.82 Z M 519.31 506.74 519.32 506.74 519.32 506.75 519.31 506.74 Z M 521.07 506.69 521 506.78 520.99 506.76 521.07 506.69 Z M 519.33 506.73 519.32 506.73 519.32 506.73 519.33 506.73 Z M 519.07 506.6 519.05 506.6 519.05 506.59 519.07 506.6 Z M 519.04 506.57 519.05 506.58 519.04 506.58 519.04 506.57 Z M 519.84 505.49 519.83 505.49 519.83 505.48 519.84 505.49 Z M 519.91 505.37 519.92 505.36 519.95 505.37 519.91 505.37 Z M 520.99 505.27 520.97 505.27 521.04 505.21 520.99 505.27 Z M 519.23 504.79 519.21 504.77 519.27 504.76 519.23 504.79 Z M 519.88 504.53 519.77 504.59 519.57 504.63 519.88 504.53 Z M 521.24 504.49 521.23 504.49 521.24 504.45 521.24 504.49 Z M 518.87 504.39 518.84 504.39 518.83 504.35 518.87 504.39 Z M 520.57 504.11 520.75 504.14 520.43 504.47 520.57 504.11 Z M 520.74 504.26 520.78 504.26 520.77 504.28 520.74 504.26 Z M 518.9 504.24 518.89 504.25 518.89 504.24 518.9 504.24 Z M 518.9 504.22 518.89 504.22 518.89 504.21 518.9 504.22 Z M 518.59 504.17 518.58 504.19 518.58 504.19 518.58 504.18 518.59 504.17 Z M 519.03 504.17 519.01 504.18 519.01 504.18 519.03 504.17 Z M 518.52 504.15 518.55 504.15 518.55 504.17 518.52 504.15 Z M 519.18 504.08 519.2 504.07 519.2 504.08 519.18 504.08 Z M 520.81 504.04 520.84 504.13 520.76 504.12 520.81 504.04 Z M 520.95 504.01 520.93 504 520.96 503.99 520.95 504.01 Z M 520.34 504.01 520.32 504 520.34 503.98 520.34 504.01 Z M 520.04 503.98 520.02 503.99 520.01 503.98 520.04 503.98 Z M 519.82 503.97 519.86 503.94 519.86 503.96 519.82 503.97 Z M 520.11 503.9 520.05 503.94 520.05 503.92 520.11 503.9 Z M 520.96 503.79 520.93 503.89 520.87 503.89 520.96 503.79 Z M 519.48 503.79 519.46 503.87 519.43 503.86 519.48 503.79 Z M 518.96 503.74 518.97 503.76 518.96 503.76 518.96 503.74 Z M 519.08 503.74 519.08 503.74 519.09 503.73 519.08 503.74 Z M 519.02 503.7 518.98 503.7 518.99 503.67 519.02 503.7 Z M 519.86 503.65 519.86 503.65 519.86 503.66 519.86 503.65 Z M 519.07 503.63 519.06 503.64 519.06 503.64 519.07 503.63 Z M 519.86 503.64 519.85 503.63 519.87 503.62 519.86 503.64 Z M 519.07 503.62 519.06 503.62 519.06 503.6 519.07 503.62 Z M 519.16 503.55 519.08 503.59 519.09 503.54 519.16 503.55 Z M 519.34 503.43 519.3 503.38 519.34 503.35 519.34 503.43 Z M 518.8 503.3 519 503.21 518.91 503.51 518.8 503.3 Z M 519.13 502.9 519.12 502.89 519.15 502.87 519.13 502.9 Z M 519.28 502.87 519.29 502.87 519.29 502.87 519.28 502.87 Z M 518.96 502.85 518.93 502.85 518.97 502.81 518.96 502.85 Z M 519.07 502.77 519.1 502.74 519.11 502.76 519.07 502.77 Z M 519.27 502.72 519.3 502.68 519.3 502.69 519.27 502.72 Z M 519.1 502.51 519.18 502.51 519.16 502.54 519.1 502.51 Z M 519.05 502.47 519.05 502.46 519.07 502.45 519.05 502.47 Z M 518.94 502.42 518.96 502.42 518.9 502.48 518.94 502.42 Z M 519.21 502.25 519.25 502.25 519.17 502.28 519.21 502.25 Z M 519.13 502.23 519.12 502.24 519.12 502.23 519.13 502.23 Z M 519.45 502.19 519.45 502.19 519.44 502.18 519.45 502.19 Z M 518.99 502.07 519.02 502.07 518.98 502.11 518.99 502.07 Z M 520.6 502.07 520.55 502.11 520.56 502.05 520.6 502.07 Z M 521.23 501.89 521.24 501.89 521.25 501.89 521.23 501.89 Z M 519.85 501.74 519.69 501.87 519.66 501.82 519.85 501.74 Z M 520.65 501.79 520.66 501.78 520.65 501.78 520.65 501.79 Z M 519.95 501.79 519.92 501.81 519.89 501.77 519.95 501.79 Z M 520.44 501.73 520.43 501.76 520.39 501.74 520.44 501.73 Z M 521.12 501.73 521.12 501.74 521.1 501.74 521.12 501.73 Z M 519.8 501.72 519.81 501.71 519.82 501.72 519.8 501.72 Z M 520.54 501.73 520.53 501.72 520.54 501.69 520.54 501.73 Z M 520.18 501.64 520.17 501.64 520.17 501.63 520.18 501.64 Z M 519.98 501.65 519.96 501.64 519.97 501.61 519.98 501.65 Z M 521.33 501.55 521.11 501.72 521.1 501.68 521.33 501.55 Z M 520.47 501.53 520.32 501.67 520.32 501.62 520.47 501.53 Z M 519.42 501.58 519.42 501.59 519.4 501.58 519.42 501.58 Z M 520.1 501.55 520.14 501.57 520.06 501.6 520.1 501.55 Z M 520.3 501.51 520.31 501.49 520.32 501.5 520.3 501.51 Z M 521.18 501.48 521.13 501.47 521.16 501.45 521.18 501.48 Z M 521.44 501.42 521.43 501.42 521.46 501.37 521.44 501.42 Z M 521.48 501.34 521.46 501.36 521.47 501.35 521.48 501.34 Z M 522.37 501.32 522.36 501.32 522.37 501.31 522.37 501.32 Z M 521.92 501.17 521.97 501.17 521.9 501.22 521.92 501.17 Z M 524.73 504.3 524.78 504.3 524.77 504.32 524.73 504.3 Z M 524.01 502.3 524.03 502.28 524.04 502.29 524.01 502.3 Z M 524.1 501.75 524.15 501.74 524.11 501.82 524.1 501.75 Z M 523.8 501.65 523.83 501.63 523.84 501.66 523.8 501.65 Z M 523.89 501.61 523.88 501.62 523.88 501.6 523.89 501.61 Z M 523.91 501.58 523.91 501.59 523.9 501.59 523.91 501.58 Z M 523.79 501.59 523.68 501.61 523.66 501.57 523.79 501.59 Z M 524.43 501.57 524.43 501.57 524.42 501.58 524.43 501.57 Z M 524.41 501.55 524.42 501.55 524.41 501.55 524.41 501.55 Z M 523.97 501.5 523.97 501.57 523.94 501.56 523.97 501.5 Z M 524.43 501.53 524.42 501.54 524.42 501.53 524.43 501.53 Z M 523.8 501.52 523.79 501.53 523.79 501.53 523.8 501.52 Z M 523.63 501.49 523.64 501.48 523.65 501.49 523.63 501.49 Z M 524.95 501.24 524.97 501.76 524.15 501.33 524.95 501.24 Z M 522.39 501.47 522.19 501.51 522.57 501.26 522.39 501.47 Z M 524.01 501.36 524.02 501.35 524.02 501.36 524.01 501.36 Z M 524.02 501.34 524.02 501.34 524.02 501.34 524.02 501.34 Z M 524.16 501.28 524.09 501.29 524.09 501.23 524.16 501.28 Z M 525.03 501.2 525.07 501.2 525.05 501.24 525.03 501.2 Z M 524.05 501.2 524.05 501.2 524.05 501.19 524.05 501.2 Z M 524.01 501.16 524.06 501.16 524.03 501.19 524.01 501.16 Z M 523.8 501.16 523.78 501.15 523.79 501.13 523.8 501.16 Z M 524.3 501.14 524.3 501.14 524.3 501.14 524.3 501.14 Z M 523.21 501.04 523.17 501.15 523.13 501.14 523.13 501.12 523.21 501.04 Z M 522.55 501.1 522.54 501.1 522.59 501.07 522.55 501.1 Z M 523.96 501.01 524.02 501.01 523.92 501.12 523.96 501.01 Z M 523.36 500.99 523.37 500.98 523.38 501 523.36 500.99 Z M 523.54 500.8 523.55 500.8 523.56 500.8 523.54 500.8 Z M 524.66 500.79 524.66 500.79 524.66 500.79 524.66 500.79 Z M 524.55 500.76 524.55 500.75 524.56 500.75 524.55 500.76 Z M 524.55 500.72 524.55 500.72 524.54 500.73 524.55 500.72 Z M 524.65 500.72 524.64 500.72 524.65 500.71 524.65 500.72 Z M 524.32 500.66 524.32 500.66 524.3 500.67 524.32 500.66 Z M 523.61 500.59 523.62 500.6 523.61 500.61 523.61 500.59 Z M 523.44 500.57 523.46 500.57 523.46 500.6 523.44 500.57 Z M 523.59 500.58 523.6 500.58 523.6 500.58 523.59 500.58 Z M 524.61 500.53 524.62 500.53 524.61 500.54 524.61 500.53 Z M 523.62 500.46 523.6 500.46 523.61 500.44 523.62 500.46 Z M 523.86 500.4 523.91 500.44 523.88 500.49 523.86 500.4 Z M 524.01 500.42 524.02 500.43 524.02 500.43 524.01 500.42 Z M 524.84 500.42 524.86 500.41 524.86 500.42 524.84 500.42 Z M 523.99 500.41 523.93 500.39 523.96 500.36 523.99 500.41 Z M 524.98 500.38 524.97 500.38 524.97 500.37 524.98 500.38 Z M 523.78 500.29 523.84 500.4 523.77 500.43 523.78 500.29 Z M 524.69 500.28 524.74 500.26 524.69 500.31 524.69 500.28 Z M 523.77 500.27 523.76 500.26 523.8 500.25 523.77 500.27 Z M 524.85 500.27 524.76 500.31 524.8 500.25 524.85 500.27 Z M 523.97 500.12 524.1 500.17 523.92 500.28 523.97 500.12 Z M 523.87 500.15 523.88 500.15 523.87 500.16 523.87 500.15 Z M 524.93 500.13 524.98 500.1 524.98 500.12 524.93 500.13 Z M 524.42 500.11 524.46 500.08 524.45 500.1 524.42 500.11 Z M 524.17 500.09 524.16 500.09 524.16 500.09 524.17 500.09 Z M 523.45 500.1 523.43 500.09 523.46 500.08 523.45 500.1 Z M 524.17 500.05 524.24 500.04 524.23 500.07 524.17 500.05 Z M 523.75 500.02 523.57 500.07 523.59 500 523.75 500.02 Z M 524.56 499.95 524.58 499.97 524.5 500.02 524.56 499.95 Z M 524.66 499.9 524.65 499.92 524.64 499.91 524.66 499.9 Z M 523.86 499.87 523.9 499.88 523.89 499.89 523.86 499.87 Z M 524.94 499.91 524.87 499.91 524.91 499.85 524.94 499.91 Z M 525.03 499.83 525.05 499.84 525.02 499.88 525.03 499.83 Z M 524.04 499.77 524.06 499.77 524.04 499.81 524.04 499.77 Z M 524.86 499.71 524.87 499.71 524.86 499.74 524.86 499.71 Z M 524.02 499.69 524 499.7 524.01 499.68 524.02 499.69 Z M 524.56 499.6 524.56 499.6 524.57 499.6 524.56 499.6 Z M 524.55 499.6 524.55 499.6 524.56 499.58 524.55 499.6 Z M 523.82 499.59 523.82 499.59 523.82 499.59 523.82 499.59 Z M 523.82 499.58 523.82 499.58 523.82 499.58 523.82 499.58 Z M 523.84 499.57 523.84 499.57 523.83 499.57 523.83 499.57 523.84 499.57 Z M 524.55 499.54 524.56 499.55 524.56 499.56 524.55 499.54 Z M 524.57 499.55 524.54 499.54 524.56 499.52 524.57 499.55 Z M 524.56 499.51 524.54 499.52 524.54 499.5 524.56 499.51 Z M 524.91 499.34 524.92 499.34 524.92 499.34 524.91 499.34 Z M 524.97 499.34 524.94 499.33 524.97 499.31 524.97 499.34 Z M 528.37 504.33 528.44 504.37 528.45 504.48 528.37 504.33 Z M 527.88 503.78 527.92 503.78 527.91 503.79 527.88 503.78 Z M 527.85 503.79 527.83 503.79 527.83 503.78 527.85 503.79 Z M 524.42 503.57 526.08 502.95 526.66 502.48 526.98 501.87 526.95 502.14 527.72 502.35 527.52 502.66 528.21 503.05 528.84 502.65 528.6 503.32 529.48 503.49 525.84 503.67 524.42 503.57 Z M 528.12 502.98 528.12 502.97 528.12 502.97 528.12 502.98 Z M 528.12 502.96 528.13 502.93 528.14 502.93 528.12 502.96 Z M 528.41 502.77 528.41 502.77 528.43 502.76 528.41 502.77 Z M 528.6 502.66 528.59 502.66 528.6 502.65 528.6 502.66 Z M 528.15 502.56 528.17 502.56 528.13 502.58 528.15 502.56 Z M 528.58 502.43 528.58 502.43 528.58 502.44 528.58 502.43 Z M 528.62 502.42 528.59 502.42 528.6 502.42 528.62 502.42 Z M 525.6 502.15 525.61 502.14 525.62 502.14 525.6 502.15 Z M 526.84 502.07 526.82 502.07 526.82 502.06 526.84 502.07 Z M 527.27 502.06 527.28 502.06 527.28 502.07 527.27 502.06 Z M 525.57 502.07 525.55 502.07 525.57 502.04 525.57 502.07 Z M 525.25 502.08 525.2 502.07 525.22 502.02 525.25 502.08 Z M 526.83 502.04 526.84 502.04 526.83 502.05 526.83 502.04 Z M 526.77 502.03 526.82 502.02 526.82 502.02 526.83 502.03 526.83 502.03 526.77 502.03 Z M 526.83 502.02 526.83 502.02 526.82 502.02 526.83 502.02 Z M 527.03 502.02 527.01 502.02 527.02 502.01 527.03 502.02 Z M 526.82 501.92 526.82 501.91 526.84 501.9 526.82 501.92 Z M 527.06 501.9 527.07 501.91 527.05 501.92 527.06 501.9 Z M 526.64 501.77 526.65 501.79 526.62 501.81 526.64 501.77 Z M 525.5 501.67 525.51 501.68 525.49 501.69 525.5 501.67 Z M 525.1 501.63 525.09 501.63 525.1 501.62 525.1 501.63 Z M 525.61 501.61 525.44 501.63 525.53 501.55 525.61 501.61 Z M 525.26 501.52 525.26 501.52 525.25 501.54 525.26 501.52 Z M 525.28 501.51 525.27 501.53 525.26 501.52 525.28 501.51 Z M 525.19 501.52 525.19 501.52 525.19 501.51 525.19 501.52 Z M 525.48 501.53 525.46 501.5 525.51 501.5 525.48 501.53 Z M 526.34 501.5 526.33 501.5 526.33 501.49 526.34 501.5 Z M 525.18 501.51 525.17 501.49 525.18 501.48 525.18 501.51 Z M 525.62 501.44 525.63 501.43 525.63 501.44 525.62 501.44 Z M 528.62 501.29 528.67 501.25 528.68 501.31 528.62 501.29 Z M 528.27 501.28 528.22 501.25 528.25 501.19 528.27 501.28 Z M 528.89 501.26 528.78 501.27 528.79 501.18 528.89 501.26 Z M 525.81 501.22 525.81 501.23 525.8 501.22 525.81 501.22 Z M 525.81 501.21 525.8 501.21 525.81 501.2 525.81 501.21 Z M 526.13 501.17 526.13 501.14 526.15 501.16 526.13 501.17 Z M 526.06 501.13 526.08 501.14 526.06 501.15 526.06 501.13 Z M 525.84 501.09 525.85 501.09 525.84 501.11 525.84 501.09 Z M 525.31 501.06 525.3 501.06 525.3 501.05 525.31 501.06 Z M 526.12 501.02 526.11 501.02 526.12 501.01 526.12 501.02 Z M 525.22 501.04 525.18 501.01 525.2 500.99 525.22 501.04 Z M 526 501 526.04 501.01 526.02 501.03 526 501 Z M 526.14 501.02 526.14 501.02 526.14 501.01 526.14 501.02 Z M 526.03 501 526.05 501 526.04 501.01 526.03 501 Z M 525.6 501.02 525.59 500.98 525.62 500.99 525.6 501.02 Z M 526.05 501.01 526.05 500.97 526.06 500.99 526.05 501.01 Z M 526.32 500.98 526.33 500.97 526.33 500.97 526.32 500.98 Z M 525.21 500.96 525.21 500.96 525.22 500.95 525.21 500.96 Z M 525.43 500.87 525.45 500.87 525.44 500.89 525.43 500.87 Z M 526.2 500.85 526.2 500.86 526.18 500.85 526.2 500.85 Z M 525.41 500.85 525.4 500.85 525.41 500.83 525.41 500.85 Z M 526.33 500.8 526.32 500.79 526.36 500.78 526.33 500.8 Z M 525.73 500.72 525.74 500.68 525.75 500.7 525.73 500.72 Z M 525.62 500.68 525.65 500.68 525.62 500.71 525.62 500.68 Z M 525.04 500.28 525.06 500.28 525.05 500.3 525.04 500.28 Z M 525.14 500.22 525.16 500.21 525.16 500.22 525.14 500.22 Z M 525.25 500.16 525.26 500.16 525.24 500.2 525.25 500.16 Z M 525.09 500.15 525.05 500.18 525.04 500.14 525.09 500.15 Z M 525.29 500.04 525.29 500.05 525.27 500.05 525.29 500.04 Z M 525.49 500 525.51 499.99 525.52 500 525.49 500 Z M 525.56 499.96 525.56 499.95 525.57 499.95 525.56 499.96 Z M 525.47 499.94 525.48 499.95 525.44 499.97 525.47 499.94 Z M 525.05 499.87 525.06 499.87 525.06 499.89 525.05 499.87 Z M 525.39 499.86 525.42 499.83 525.43 499.86 525.39 499.86 Z M 525.17 499.72 525.1 499.75 525.1 499.72 525.17 499.72 Z M 525.14 499.6 525.13 499.6 525.14 499.59 525.14 499.6 Z M 525.14 499.43 525.04 499.53 524.98 499.46 525.14 499.43 Z M 525.18 499.27 525.18 499.27 525.19 499.27 525.18 499.27 Z M 525.22 499.26 525.22 499.26 525.23 499.27 525.22 499.26 Z M 525.2 499.24 525.23 499.23 525.21 499.27 525.2 499.24 Z M 529.41 503.64 529.42 503.63 529.42 503.63 529.41 503.64 Z M 529.46 503.62 529.44 503.61 529.47 503.6 529.46 503.62 Z M 528.94 503.15 528.95 503.15 528.95 503.15 528.94 503.15 Z M 529.17 503.08 529.16 503.07 529.18 503.07 529.17 503.08 Z M 529.16 503.06 529.14 503.05 529.16 502.99 529.16 503.06 Z M 529.26 502.99 529.25 502.99 529.26 502.99 529.26 502.99 Z M 528.97 502.28 528.99 502.29 528.97 502.3 528.97 502.28 Z M 530.88 502.08 530.87 502.07 530.9 502.05 530.88 502.08 Z M 529.11 501.23 529.1 501.22 529.1 501.21 529.11 501.23 Z M 529.1 501.19 529.1 501.2 529.09 501.2 529.1 501.19 Z M 529.13 501 529.12 500.99 529.13 500.99 529.13 501 Z M 529.13 500.98 529.13 500.97 529.14 500.98 529.13 500.98 Z M 531.94 500.95 531.95 500.99 531.9 500.99 531.94 500.95 Z M 529.16 500.95 529.16 500.95 529.16 500.95 529.16 500.95 Z M 529.14 500.96 529.12 500.96 529.14 500.93 529.14 500.96 Z M 532.06 500.97 532.01 500.97 532.04 500.91 532.06 500.97 Z M 532.09 500.87 532.06 500.88 532.07 500.87 532.09 500.87 Z M 532.13 500.82 532.15 500.82 532.14 500.83 532.13 500.82 Z M 532.13 500.81 532.14 500.81 532.14 500.81 532.13 500.81 Z M 531.68 500.81 531.7 500.8 531.69 500.81 531.68 500.81 Z M 531.69 500.77 531.71 500.76 531.71 500.77 531.69 500.77 Z M 532.31 500.75 532.32 500.77 532.32 500.77 532.31 500.75 Z M 529.72 500.75 529.73 500.75 529.73 500.75 529.72 500.75 Z M 532.41 500.68 532.4 500.67 532.41 500.67 532.41 500.68 Z M 531.98 500.65 531.92 500.71 531.88 500.65 531.98 500.65 Z M 532 500.61 532 500.62 531.99 500.62 531.99 500.62 532 500.61 Z M 532.06 500.61 532.06 500.62 532.05 500.61 532.06 500.61 Z M 532.03 500.61 532.02 500.62 532.02 500.61 532.03 500.61 Z M 530.16 500.6 530.56 500.47 530.56 500.67 530.16 500.6 Z M 532.08 500.6 532.09 500.6 532.09 500.61 532.08 500.6 Z M 532.01 500.6 532.01 500.61 532 500.61 532.01 500.6 Z M 531.88 500.58 531.93 500.55 531.91 500.57 531.88 500.58 Z M 532.22 500.81 532.19 500.52 532.54 500.34 532.22 500.81 Z M 532.62 500.47 532.63 500.47 532.63 500.49 532.62 500.47 Z M 532.56 500.46 532.56 500.46 532.57 500.45 532.56 500.46 Z M 532.62 500.47 532.61 500.45 532.64 500.4 532.62 500.47 Z M 530.35 500.38 530.29 500.34 530.33 500.3 530.35 500.38 Z M 532.47 500.33 532.44 500.32 532.51 500.27 532.47 500.33 Z M 532.43 500.23 532.45 500.23 532.45 500.25 532.43 500.23 Z M 532.23 500.22 532.21 500.23 532.23 500.21 532.23 500.22 Z M 532.7 500.23 532.58 500.23 532.59 500.19 532.7 500.23 Z M 532.55 500.16 532.56 500.15 532.57 500.16 532.55 500.16 Z M 530.96 499.93 530.96 499.93 530.96 499.92 530.96 499.93 Z M 530.98 499.91 530.98 499.91 530.97 499.91 530.98 499.91 Z M 531.06 499.88 531.09 499.86 531.09 499.87 531.06 499.88 Z M 532.64 499.85 532.66 499.84 532.66 499.84 532.64 499.85 Z M 532.02 499.82 532.02 499.85 531.93 499.83 532.02 499.82 Z M 531.12 499.84 531.11 499.83 531.11 499.83 531.12 499.84 Z M 533.27 499.82 533.28 499.81 533.28 499.82 533.27 499.82 Z M 533.32 499.81 533.31 499.8 533.34 499.79 533.32 499.81 Z M 533.49 499.75 533.47 499.75 533.47 499.75 533.49 499.75 Z M 533.6 499.74 533.5 499.75 533.57 499.57 533.6 499.74 Z M 532.36 499.63 532.34 499.64 532.35 499.62 532.36 499.63 Z M 530.93 499.62 530.92 499.6 530.94 499.6 530.93 499.62 Z M 533.61 499.57 533.58 499.59 533.58 499.59 533.61 499.57 Z M 533.49 499.57 533.44 499.58 533.45 499.56 533.49 499.57 Z M 532.45 499.58 532.43 499.58 532.44 499.55 532.45 499.58 Z M 531.66 499.54 531.69 499.54 531.69 499.55 531.66 499.54 Z M 531.74 499.54 531.77 499.54 531.75 499.56 531.74 499.54 Z M 532.57 499.52 532.48 499.56 532.48 499.51 532.57 499.52 Z M 532.78 499.32 533.42 499.24 532.9 499.81 532.78 499.32 Z M 533.66 499.51 533.67 499.5 533.66 499.51 533.66 499.51 Z M 531.79 499.36 531.8 499.36 531.8 499.36 531.79 499.36 Z M 531.78 499.35 531.77 499.35 531.77 499.35 531.78 499.35 Z M 533.08 499.24 533.08 499.25 533.07 499.27 533.08 499.24 Z M 533.47 499.21 533.5 499.22 533.47 499.23 533.47 499.21 Z M 533.27 499.2 533.26 499.2 533.27 499.18 533.27 499.2 Z M 533.26 499.18 533.26 499.17 533.27 499.17 533.26 499.18 Z M 533.89 498.9 533.89 498.9 533.89 498.91 533.89 498.9 Z M 533.89 498.9 533.89 498.9 533.89 498.9 533.89 498.9 Z M 533.87 498.89 533.87 498.88 533.87 498.89 533.87 498.89 Z M 533.88 498.88 533.89 498.88 533.88 498.89 533.88 498.88 Z M 517.08 500.22 528.23 494.85 516.77 490.03 561.68 477.85 568.78 461 571.45 467.39 584.85 470.53 582.83 474.31 584.35 482.96 572.21 488.01 567.11 492.32 566.49 493.63 566.66 495.42 567.76 496.48 568.86 496.21 566.96 497.42 565.94 498.74 565.85 499.57 566.54 499.87 566.22 500.49 565.14 499.75 560.06 499.4 555.75 499.37 547.85 500.22 547.85 499.9 546.37 499.44 547.02 499.33 548.3 496 548.19 495.12 547.27 494.83 545 495.7 543.84 496.66 544.05 497.42 544.66 498.23 544.79 498.33 545.2 498.27 544.95 498.53 545.04 498.73 545.91 498.86 545.52 500.29 540.89 500.94 539.32 501.43 539.01 501.89 538.64 501.83 538.73 501.8 538.7 501.71 538.84 501.57 538.82 501.48 538.16 500.94 534.68 499.06 534.59 499.2 534.44 499.08 533.75 499.33 533.66 499.1 533.93 498.98 533.96 498.84 533.88 498.8 530.13 499.52 527.66 501.5 526.67 500.5 525.95 500.97 525.73 500.58 524.86 501.08 525.78 499.81 525.44 499.77 525.19 499.96 525.43 499.41 525.32 499.43 525.38 499.33 525.26 499.35 525.23 499.23 525.07 499.16 523.79 499.49 523.38 499.92 523.28 501.01 522.64 500.64 520.54 501.67 520.6 501.36 520.16 501.32 519.26 501.5 518.97 501.82 518.33 504.04 518.47 504.67 519.43 504.22 519.71 503.81 520.03 504.47 519.37 504.32 518.84 505 519.63 505.88 522.2 505.76 520.64 506.94 519.77 506.39 518.42 506.64 518.21 507.06 515.36 504.55 517.08 500.22 Z M 533.98 502.6 533.97 502.6 533.99 502.57 533.98 502.6 Z M 538.71 501.98 538.7 501.98 538.7 501.98 538.71 501.98 Z M 538.8 501.98 538.84 501.93 538.88 501.97 538.8 501.98 Z M 545.26 501.84 545.26 501.86 545.23 501.85 545.26 501.84 Z M 538.62 501.84 538.61 501.83 538.62 501.82 538.62 501.84 Z M 545.35 501.85 545.24 501.79 545.34 501.73 545.35 501.85 Z M 539.77 501.7 539.67 501.7 539.71 501.63 539.77 501.7 Z M 532.62 500.91 538.76 501.56 531.3 502.35 532.62 500.91 Z M 539.71 501.61 539.73 501.6 539.71 501.62 539.71 501.61 Z M 538.73 501.6 538.73 501.59 538.73 501.6 538.73 501.6 Z M 538.76 501.58 538.75 501.58 538.75 501.58 538.76 501.58 Z M 538.74 501.59 538.73 501.59 538.74 501.57 538.74 501.59 Z M 538.76 501.58 538.76 501.58 538.76 501.58 538.76 501.58 Z M 538.81 501.57 538.8 501.58 538.79 501.57 538.81 501.57 Z M 538.76 501.55 538.77 501.52 538.78 501.54 538.76 501.55 Z M 538.77 501.48 538.81 501.51 538.79 501.5 538.77 501.48 Z M 539.76 501.48 539.78 501.47 539.79 501.48 539.76 501.48 Z M 538.7 501.44 538.79 501.46 538.78 501.46 538.7 501.44 Z M 538.7 501.44 538.7 501.44 538.7 501.44 538.7 501.44 Z M 538.67 501.42 538.7 501.43 538.69 501.43 538.67 501.42 Z M 543.28 501.36 543.28 501.38 543.27 501.37 543.28 501.36 Z M 538.44 501.34 538.43 501.32 538.45 501.32 538.44 501.34 Z M 543.28 501.32 543.28 501.32 543.28 501.32 543.28 501.32 Z M 538.4 501.3 538.41 501.33 538.39 501.32 538.4 501.3 Z M 538.32 501.27 538.36 501.29 538.26 501.28 538.32 501.27 Z M 538.27 501.27 538.28 501.27 538.28 501.27 538.27 501.27 Z M 538.45 501.19 538.53 501.26 538.55 501.32 538.48 501.23 538.45 501.19 Z M 543.32 501.22 543.39 501.18 543.42 501.21 543.32 501.22 Z M 543.17 501.2 543.16 501.2 543.18 501.2 543.17 501.2 Z M 545.1 501.21 545.29 501.15 545.23 501.21 545.1 501.21 Z M 538.16 501.03 538.54 501.35 538.48 501.34 538.41 501.29 538.34 501.26 538.12 501.23 538.16 501.03 Z M 540.47 501.14 540.5 501.2 540.44 501.21 540.47 501.14 Z M 543.37 501.14 543.37 501.14 543.38 501.14 543.37 501.14 Z M 543.36 501.13 543.37 501.13 543.37 501.13 543.36 501.13 Z M 545.32 501.11 545.32 501.12 545.31 501.14 545.32 501.11 Z M 543.44 501.1 543.49 501.09 543.49 501.14 543.44 501.1 Z M 545.35 501.09 545.36 501.09 545.35 501.1 545.35 501.09 Z M 537.96 501.09 537.95 501.08 538.08 501.09 537.96 501.09 Z M 543.89 501.08 543.84 501.07 543.88 501.05 543.89 501.08 Z M 545.38 501.07 545.36 501.07 545.36 501.05 545.38 501.07 Z M 538.09 501.01 538.15 501.02 538.11 501.05 538.09 501.01 Z M 545.31 501.02 545.41 501.01 545.37 501.03 545.31 501.02 Z M 545.13 501.01 545.12 501 545.22 501 545.13 501.01 Z M 545.53 500.92 545.54 500.96 545.52 500.94 545.53 500.92 Z M 537.23 500.59 537.22 500.6 537.22 500.6 537.23 500.59 Z M 537.27 500.58 537.27 500.58 537.26 500.59 537.27 500.58 Z M 537.08 500.54 537.08 500.54 537.08 500.53 537.08 500.54 Z M 537.07 500.51 537.1 500.51 537.08 500.52 537.07 500.51 Z M 536.47 500.3 536.45 500.3 536.46 500.3 536.47 500.3 Z M 536.34 500.28 536.26 500.3 536.26 500.3 536.34 500.28 Z M 534.87 499.28 534.85 499.24 534.9 499.22 534.87 499.28 Z M 534.43 499.22 534.39 499.23 534.39 499.2 534.43 499.22 Z M 534.43 499.12 534.37 499.14 534.4 499.11 534.43 499.12 Z M 533.9 498.9 533.9 498.9 533.9 498.9 533.9 498.9 Z M 533.91 498.88 533.91 498.88 533.91 498.88 533.91 498.88 Z M 533.91 498.88 533.9 498.89 533.9 498.88 533.91 498.88 Z M 533.92 498.88 533.93 498.87 533.93 498.88 533.92 498.88 Z M 533.92 498.87 533.92 498.88 533.91 498.88 533.92 498.87 Z M 533.92 498.87 533.92 498.87 533.92 498.87 533.92 498.87 Z M 533.93 498.87 533.93 498.87 533.94 498.87 533.93 498.87 Z M 533.94 498.87 533.94 498.87 533.93 498.87 533.94 498.87 Z M 545.68 498.65 545.81 498.69 545.74 498.75 545.68 498.65 Z M 545.1 498.58 545.07 498.63 545.03 498.54 545.1 498.58 Z M 545.31 498.54 545.27 498.56 545.27 498.55 545.31 498.54 Z M 545.66 498.47 545.71 498.47 545.7 498.49 545.66 498.47 Z M 544.59 498.09 544.48 497.66 545.08 498.03 544.59 498.09 Z M 545.66 497.67 545.66 497.65 545.71 497.69 545.66 497.67 Z M 544.27 497.45 544.27 497.46 544.27 497.46 544.27 497.45 Z M 544.18 497.47 544.17 497.45 544.2 497.44 544.18 497.47 Z M 544.25 497.45 544.25 497.43 544.26 497.43 544.25 497.45 Z M 545.76 497.56 544.07 497.23 544.68 496.73 544.74 496.71 544.89 496.74 545.09 496.91 545.36 496.94 545.43 496.91 545.76 497.56 Z M 545.56 495.69 545.57 495.69 545.57 495.7 545.56 495.69 Z M 546.17 501.7 546.12 501.6 546.14 501.59 546.17 501.7 Z M 546.1 499.89 546.16 499.86 546.16 499.89 546.1 499.89 Z M 546.72 499.7 546.7 499.69 546.72 499.69 546.72 499.7 Z M 546.15 499.39 546.15 499.39 546.14 499.4 546.15 499.39 Z M 546.18 499.38 546.18 499.38 546.16 499.39 546.18 499.38 Z M 545.98 499 545.91 499.06 545.93 499 545.98 499 Z M 546.55 498.95 546.54 498.96 546.54 498.95 546.55 498.95 Z M 546.45 498.93 546.45 498.93 546.45 498.93 546.45 498.93 Z M 545.83 498.72 545.82 498.72 545.81 498.72 545.83 498.72 Z M 546.6 498.32 546.68 498.34 546.64 498.37 546.6 498.32 Z M 546.32 498.22 546.42 498.21 546.44 498.31 546.32 498.22 Z M 546.5 498.09 546.53 498.11 546.49 498.17 546.5 498.09 Z M 546.66 498.13 546.53 498.1 546.58 498.05 546.66 498.13 Z M 546.7 497.97 546.72 497.95 546.72 497.97 546.7 497.97 Z M 545.81 497.52 545.81 497.52 545.8 497.52 545.81 497.52 Z M 545.89 497.35 545.89 497.36 545.88 497.35 545.89 497.35 Z M 545.91 497.27 545.85 497.24 545.85 497.21 545.91 497.27 Z M 546.63 497.11 546.64 497.1 546.64 497.11 546.63 497.11 Z M 546.6 497.09 546.58 497.13 546.57 497.11 546.6 497.09 Z M 546.7 497.05 546.7 497.06 546.68 497.08 546.7 497.05 Z M 545.78 497.01 545.77 497.01 545.77 497 545.78 497.01 Z M 545.98 497.01 545.98 497.01 545.97 497.01 545.98 497.01 Z M 546.57 496.97 546.59 496.96 546.6 496.99 546.57 496.97 Z M 546.76 496.96 546.75 496.94 546.79 496.93 546.76 496.96 Z M 546.62 496.93 546.63 496.94 546.6 496.95 546.62 496.93 Z M 546.01 496.91 546.01 496.91 546.01 496.91 546.01 496.91 Z M 546.02 496.91 546.02 496.91 546.02 496.91 546.02 496.91 Z M 546.01 496.9 546.01 496.9 546.01 496.91 546.01 496.9 Z M 546.03 496.9 546.03 496.9 546.03 496.9 546.03 496.9 Z M 546.03 496.9 546.03 496.9 546.03 496.9 546.03 496.9 Z M 546.03 496.9 546.03 496.9 546.03 496.9 546.03 496.9 Z M 546.01 496.9 546.01 496.9 546.01 496.9 546.01 496.9 Z M 546.01 496.91 546.01 496.91 546.01 496.91 546.01 496.89 546.01 496.91 Z M 546.01 496.86 546.01 496.86 546.01 496.86 546.01 496.86 Z M 546.02 496.86 546.02 496.86 546.02 496.86 546.02 496.86 Z M 546.01 496.86 546.01 496.86 546.02 496.86 546.01 496.86 Z M 546.01 496.86 546.01 496.86 546.01 496.86 546.01 496.86 Z M 546.02 496.86 546.02 496.86 546.02 496.86 546.02 496.86 Z M 546.01 496.86 546.01 496.86 546.02 496.86 546.01 496.86 Z M 546.01 496.86 546.01 496.86 546.01 496.86 546.01 496.86 Z M 546.02 496.86 546.02 496.86 546.02 496.86 546.02 496.86 Z M 546.02 496.86 546.02 496.86 546.02 496.86 546.02 496.86 Z M 546.01 496.86 546.01 496.86 546.01 496.86 546.01 496.86 Z M 546.08 496.83 546.07 496.83 546.07 496.83 546.08 496.83 Z M 546.08 496.83 546.08 496.84 546.08 496.82 546.08 496.83 Z M 546.13 496.82 546.12 496.81 546.13 496.81 546.13 496.82 Z M 546.1 496.79 546.08 496.78 546.12 496.77 546.1 496.79 Z M 546.32 496.7 546.34 496.7 546.33 496.71 546.32 496.7 Z M 546.28 496.68 546.28 496.69 546.28 496.69 546.28 496.68 546.28 496.69 546.28 496.68 Z M 546.32 496.6 546.31 496.59 546.33 496.58 546.32 496.6 Z M 546.3 496.59 546.26 496.58 546.28 496.58 546.3 496.59 Z M 546.06 496.5 546.08 496.54 545.94 496.57 546.06 496.5 Z M 546.72 496.48 546.73 496.47 546.74 496.46 546.72 496.48 Z M 546.7 496.46 546.69 496.46 546.7 496.45 546.7 496.46 Z M 545.78 496.45 545.78 496.45 545.78 496.45 545.78 496.45 Z M 545.8 496.45 545.79 496.46 545.79 496.45 545.8 496.45 Z M 545.78 496.44 545.78 496.44 545.78 496.44 545.78 496.44 Z M 545.79 496.43 545.79 496.44 545.79 496.44 545.79 496.43 Z M 545.79 496.43 545.79 496.43 545.79 496.43 545.79 496.43 Z M 545.78 496.43 545.77 496.43 545.77 496.43 545.78 496.43 Z M 545.79 496.43 545.79 496.43 545.79 496.43 545.79 496.43 Z M 545.78 496.43 545.78 496.43 545.78 496.43 545.78 496.43 Z M 545.78 496.43 545.78 496.43 545.79 496.43 545.78 496.43 Z M 545.77 496.43 545.77 496.42 545.78 496.42 545.77 496.43 Z M 545.79 496.42 545.79 496.42 545.79 496.42 545.79 496.42 Z M 545.77 496.42 545.77 496.42 545.78 496.42 545.77 496.42 Z M 545.78 496.42 545.78 496.42 545.78 496.42 545.78 496.42 Z M 545.77 496.42 545.77 496.42 545.77 496.42 545.77 496.42 Z M 545.77 496.42 545.77 496.42 545.77 496.42 545.77 496.42 Z M 545.78 496.41 545.78 496.41 545.78 496.42 545.78 496.41 Z M 545.78 496.41 545.77 496.41 545.77 496.41 545.78 496.41 Z M 546.74 496.23 546.64 496.26 546.63 496.23 546.74 496.23 Z M 546.57 496.09 546.48 496.08 546.49 496.05 546.57 496.09 Z M 550.02 500.99 550.02 500.99 550.01 500.98 550.02 500.99 Z M 550.04 500.93 550.09 500.91 550.07 500.95 550.04 500.93 Z M 550.19 500.83 550.11 500.87 550.29 500.67 550.19 500.83 Z M 550.41 500.64 550.41 500.66 550.38 500.67 550.41 500.64 Z M 550.37 500.64 550.41 500.62 550.4 500.64 550.37 500.64 Z M 566.83 500.5 566.36 500.78 566.22 500.52 566.83 500.5 Z M 547.19 500.33 547.34 500.29 547.32 500.33 547.19 500.33 Z M 565.79 500.26 565.79 500.27 565.78 500.27 565.79 500.26 Z M 547.57 500.24 547.66 500.21 547.65 500.26 547.57 500.24 Z M 565.76 500.2 565.79 500.2 565.77 500.24 565.76 500.2 Z M 547.81 500.14 547.83 500.14 547.8 500.2 547.81 500.14 Z M 566.65 499.98 566.56 499.98 566.58 499.89 566.65 499.98 Z M 554.22 499.86 554.23 499.87 554.22 499.87 554.22 499.86 Z M 546.96 499.78 546.9 499.78 546.92 499.75 546.96 499.78 Z M 558.15 499.56 558.16 499.54 558.17 499.54 558.15 499.56 Z M 565.93 499.51 565.92 499.52 565.92 499.48 565.93 499.51 Z M 558.04 499.47 558.03 499.49 558.02 499.48 558.04 499.47 Z M 558.04 499.46 558.04 499.46 558.04 499.46 558.04 499.46 Z M 558.05 499.45 558.06 499.45 558.06 499.46 558.05 499.45 Z M 558.06 499.44 558.06 499.45 558.06 499.45 558.06 499.44 Z M 558.08 499.45 558.07 499.44 558.07 499.44 558.08 499.45 Z M 546.97 499.33 546.96 499.32 546.96 499.32 546.97 499.33 Z M 566.87 498.77 566.79 498.82 566.64 498.63 566.87 498.77 Z M 567.14 498.51 567.15 498.47 567.15 498.48 567.14 498.51 Z M 567.17 498.49 567.16 498.48 567.17 498.45 567.17 498.49 Z M 567.46 498.38 567.51 498.36 567.5 498.4 567.46 498.38 Z M 567.27 498.29 567.34 498.25 567.3 498.32 567.27 498.29 Z M 567.54 498.24 567.54 498.25 567.53 498.24 567.54 498.24 Z M 567.44 498.34 567.33 498.24 567.42 498.13 567.44 498.34 Z M 567.84 498.15 567.84 498.13 567.89 498.14 567.84 498.15 Z M 567.78 498.14 567.81 498.12 567.84 498.13 567.78 498.14 Z M 546.93 497.84 546.89 497.86 546.9 497.82 546.93 497.84 Z M 546.85 497.84 546.85 497.84 546.86 497.82 546.85 497.84 Z M 546.72 497.6 546.79 497.54 546.91 497.62 546.72 497.6 Z M 547.07 497.34 547.11 497.36 546.92 497.52 547.07 497.34 Z M 567.88 497.28 567.9 497.3 567.89 497.3 567.88 497.28 Z M 567.87 497.27 567.88 497.28 567.87 497.28 567.87 497.27 Z M 567.84 497.26 567.8 497.22 567.82 497.23 567.84 497.26 Z M 546.8 497.05 546.79 497.06 546.84 497 546.8 497.05 Z M 546.91 496.84 546.93 496.84 546.92 496.85 546.91 496.84 Z M 546.88 496.85 546.91 496.83 546.91 496.84 546.89 496.85 546.88 496.85 Z M 546.98 496.82 546.97 496.83 546.97 496.82 546.98 496.82 Z M 547.01 496.8 547.01 496.8 546.99 496.81 547.01 496.8 Z M 546.87 496.59 546.9 496.59 546.9 496.59 546.87 496.59 Z M 547.48 496.55 547.49 496.55 547.48 496.56 547.48 496.55 Z M 547.47 496.55 547.45 496.55 547.46 496.53 547.47 496.55 Z M 546.96 496.35 546.96 496.35 546.96 496.34 546.96 496.35 Z M 547.53 496.3 547.54 496.3 547.53 496.31 547.53 496.3 Z M 546.95 496.13 546.95 496.4 546.75 496.44 546.95 496.13 Z M 548.22 495.95 548.28 496.02 548.22 496.07 548.22 495.95 Z M 567.48 495.93 567.48 495.93 567.48 495.93 567.48 495.93 Z M 567.44 495.96 567.39 495.93 567.4 495.89 567.44 495.96 Z M 567.4 495.88 567.39 495.88 567.4 495.88 567.4 495.88 Z M 567.49 495.87 567.5 495.87 567.5 495.88 567.49 495.87 Z M 567.4 495.73 567.4 495.72 567.4 495.73 567.4 495.73 Z M 567.83 495.69 567.75 495.65 567.86 495.62 567.83 495.69 Z M 547.63 495.14 547.63 495.13 547.64 495.14 547.63 495.14 Z M 546.91 495.09 546.91 495.1 546.9 495.1 546.91 495.09 Z M 547.67 495.07 547.7 495.05 547.7 495.06 547.67 495.07 Z M 566.74 493.41 566.76 493.39 566.76 493.4 566.74 493.41 Z M 567.6 492.43 567.62 492.43 567.62 492.44 567.6 492.43 Z M 567.48 492.42 567.48 492.44 567.47 492.44 567.48 492.42 Z M 567.6 492.42 567.59 492.42 567.59 492.42 567.6 492.42 Z M 567.48 492.42 567.48 492.41 567.48 492.41 567.48 492.42 Z M 567.62 492.41 567.62 492.41 567.62 492.41 567.62 492.41 Z M 567.61 492.41 567.61 492.41 567.61 492.41 567.61 492.41 Z M 567.61 492.41 567.61 492.41 567.61 492.4 567.61 492.41 Z M 567.45 492.4 567.46 492.4 567.45 492.4 567.45 492.4 Z M 567.58 492.4 567.58 492.4 567.58 492.39 567.58 492.4 Z M 567.54 492.4 567.55 492.38 567.58 492.39 567.57 492.4 567.54 492.4 Z M 567.88 492.26 567.9 492.28 567.87 492.29 567.88 492.26 Z M 567.87 492.17 567.87 492.17 567.87 492.17 567.87 492.17 Z M 568.14 498.06 567.99 498.11 568.14 497.9 568.14 498.06 Z M 568.16 497.9 568.15 497.89 568.16 497.89 568.16 497.9 Z M 568.33 497.8 568.39 497.77 568.41 497.79 568.33 497.8 Z M 567.9 497.28 567.91 497.28 567.91 497.29 567.9 497.28 Z M 568.28 496.75 568.28 496.75 568.28 496.76 568.28 496.75 Z M 568.35 496.73 568.35 496.73 568.35 496.73 568.35 496.73 Z M 569.47 496.74 569.47 496.73 569.48 496.72 569.47 496.74 Z M 569.47 496.72 569.47 496.72 569.47 496.73 569.47 496.72 Z M 568.17 496.71 568.17 496.71 568.17 496.71 568.17 496.71 Z M 568.22 496.7 568.22 496.7 568.22 496.7 568.22 496.7 Z M 568.22 496.69 568.22 496.69 568.22 496.69 568.22 496.69 Z M 569.53 496.5 569.63 496.5 569.53 496.58 569.53 496.5 Z M 570.09 496.5 570.09 496.48 570.17 496.43 570.09 496.5 Z M 568.7 496.42 568.7 496.4 568.71 496.4 568.7 496.42 Z M 568.15 496.22 568.15 496.23 568.14 496.22 568.15 496.22 Z M 568.44 496.16 568.45 496.16 568.44 496.17 568.44 496.16 Z M 568.67 495.76 568.69 495.77 568.66 495.79 568.67 495.76 Z M 568.06 492.36 568.05 492.35 568.05 492.35 568.06 492.36 Z M 568.05 492.34 568.05 492.34 568.05 492.34 568.05 492.34 Z M 567.92 492.27 567.91 492.27 567.92 492.27 567.92 492.27 Z M 567.89 492.26 567.89 492.26 567.88 492.26 567.89 492.26 Z M 568.48 491.52 568.49 491.52 568.49 491.52 568.48 491.52 Z M 568.5 491.51 568.51 491.51 568.51 491.52 568.5 491.51 Z M 568.48 491.51 568.48 491.51 568.48 491.51 568.48 491.51 Z M 568.48 491.48 568.5 491.48 568.5 491.49 568.48 491.48 Z M 568.83 491.32 568.85 491.33 568.84 491.33 568.83 491.32 Z M 569.13 491.33 569.12 491.32 569.13 491.32 569.13 491.33 Z M 569.11 491.32 569.1 491.32 569.1 491.32 569.11 491.32 Z M 569.08 491.32 569.09 491.31 569.09 491.32 569.08 491.32 Z M 568.9 491.26 568.89 491.26 568.89 491.25 568.9 491.26 Z M 568.98 491.23 568.98 491.25 568.96 491.25 568.98 491.23 Z M 568.96 491.22 568.97 491.22 568.96 491.23 568.96 491.22 Z M 569 491.12 568.99 491.13 568.98 491.12 569 491.12 Z M 569.08 491.08 569.08 491.08 569.08 491.08 569.08 491.08 Z M 569.06 491.06 569.06 491.06 569.06 491.06 569.06 491.06 Z M 569.03 491.05 569.03 491.04 569.05 491.04 569.03 491.05 Z M 569.06 491.04 569.06 491.04 569.06 491.04 569.06 491.04 Z M 569.01 490.94 569.01 490.93 569.01 490.93 569.01 490.94 Z M 569.01 490.94 569.01 490.94 569.01 490.93 569.01 490.94 Z M 569.03 490.9 569.03 490.92 569.03 490.91 569.03 490.9 Z M 569.02 490.9 569.02 490.9 569.02 490.9 569.02 490.9 Z M 569.05 490.89 569.08 490.88 569.09 490.89 569.05 490.89 Z M 569.48 490.38 569.48 490.38 569.47 490.39 569.48 490.38 Z M 569.49 490.36 569.49 490.36 569.49 490.37 569.49 490.36 Z M 569.49 490.37 569.49 490.36 569.49 490.36 569.49 490.37 Z M 569.49 490.36 569.49 490.36 569.49 490.36 569.49 490.36 Z M 571.49 490.3 571.45 490.23 571.53 490.27 571.49 490.3 Z M 571.72 490.3 571.56 490.19 571.69 490.02 571.72 490.3 Z M 569.97 490.11 569.97 490.11 569.97 490.11 569.97 490.11 Z M 571.92 489.99 571.91 489.99 571.92 489.98 571.92 489.99 Z M 571.96 489.95 571.97 489.96 571.95 489.97 571.96 489.95 Z M 571.84 490.03 571.79 489.93 571.89 489.88 571.84 490.03 Z M 571.95 489.92 572.01 489.92 572 489.94 571.95 489.92 Z M 570.59 489.79 570.58 489.79 570.58 489.77 570.59 489.79 Z M 570.6 489.76 570.61 489.75 570.62 489.76 570.6 489.76 Z M 570.69 489.65 570.7 489.63 570.72 489.64 570.69 489.65 Z M 582.07 484.29 582.07 484.29 582.07 484.3 582.07 484.29 Z M 583.6 476.16 583.66 476.19 583.65 476.19 583.6 476.16 Z M 583.69 476.19 583.62 476.15 583.74 476.16 583.69 476.19 Z M 583.85 476.16 583.84 476.16 583.83 476.16 583.84 476.16 583.85 476.16 Z M 583.82 476.15 583.82 476.13 583.85 476.15 583.82 476.15 Z M 583.79 476.15 583.77 476.14 583.82 476.13 583.79 476.15 Z M 583.86 476.12 583.85 476.14 583.83 476.13 583.86 476.12 Z M 583.9 476.05 583.87 476.12 583.84 476.02 583.9 476.05 Z M 583.33 475.51 583.8 475.91 583.81 476.03 583.33 475.51 Z M 583.27 475.49 583.28 475.48 583.29 475.5 583.27 475.49 Z M 583.49 473.38 583.48 473.38 583.49 473.37 583.49 473.38 Z M 583.49 473.36 583.49 473.36 583.5 473.36 583.49 473.36 Z" fill-rule="evenodd"/>
<path d="M 134.85 260.19 145.77 263.35 155.4 257.55 158.04 260.64 162.61 252.89 174.81 252.27 184.14 234.9 197.87 235.07 213.07 250.85 219.34 248.08 220.76 288.11 240.04 288.18 249.64 294.34 246.25 303.2 252.16 312.07 235.63 335.97 215.62 333.43 193.1 317.08 170.09 313.85 155.16 300.86 153.33 265.58 128.25 266.41 134.85 260.19 Z"/>
<path d="M 435.87 423.55 443.86 417.53 461.15 420.98 473.02 413.16 468.49 401.32 475.79 394.07 469.98 385.04 472.73 377.07 481.44 374.66 479.34 360.18 486.82 360.03 486.86 353.83 495.62 357.32 494.69 363.73 531.31 346.13 533.57 353.33 569.92 360.85 578.27 372.25 589.42 370.88 604.34 378.78 591.71 395.58 597.88 411.78 586.2 411.61 585.85 411.91 588.17 414.89 581.32 417.58 585.02 438.18 577.37 450.83 569.14 453.29 561.73 477.81 547.45 484.51 489.62 498.86 482.93 488.28 486.72 473.48 477.83 472.64 469.76 446.81 445.76 450.36 444.53 455.31 433.13 445.86 416.65 443.6 407.3 449 407.96 438.36 419.58 424.43 435.87 423.55 Z"/>
<path d="M 373.42 423.45 376.2 418.28 370.19 417.68 367.62 403.75 377.56 382.1 405.77 357.69 418.52 315.69 422.49 313.03 419.81 320.87 436.16 328.54 445.21 320.26 449.99 329.41 457.82 326.42 466.02 332 466.83 325.51 470.5 328.85 493.79 322.31 489.78 325.45 494.51 328.95 491.75 343.26 497.36 347.68 494.62 357.46 486.86 353.83 486.82 360.03 479.44 359.98 481.37 374.75 471.51 376.82 470.64 367.96 456.82 367.97 455.32 373.88 455.44 377.64 472.58 377.65 469.91 385.68 475.71 394.63 468.46 402.48 473.02 413.16 461.15 420.98 443.86 417.53 435.87 423.55 419.76 424.35 408.46 438.08 373.42 423.45 Z"/>
<path d="M 455.44 377.64 456.82 367.97 470.64 367.96 472.56 377.41 455.44 377.64 Z"/>
<path d="M 359.48 398.48 355.17 410.78 370.67 412.73 370.19 417.68 376.2 418.28 373.42 423.45 408.44 437.96 406.27 451.65 396.81 458.88 388.28 477.82 361.21 499.68 349.93 519.18 342.43 514.91 329.27 517.61 321.5 487.81 283.63 484.43 286.74 464.21 280.56 450.43 286.03 446.99 281.22 443.24 293.2 416.21 288.46 409.11 287.92 404.43 293.22 410.41 316.92 397.39 334.16 405.95 348.92 406.15 359.48 398.48 Z"/>
<path d="M 370.67 412.73 355.17 410.78 359.48 398.48 352.77 405.39 334.33 405.99 316.89 397.39 293.19 410.41 276.48 397.7 277.84 381.48 245.1 381.49 238 360.81 243.84 360.81 241.43 341.18 235.5 335.84 252.16 312.07 246.25 303.2 249.64 294.34 240.04 288.18 220.76 288.11 220.18 249.43 276.19 249.33 281.15 223.8 290.74 248.69 305.51 260.18 421.02 267.87 411.92 296.06 416.18 321.55 405.79 357.65 377.56 382.1 368.08 399.72 370.67 412.73 Z"/>
<path d="M 676.81 265.26 676.82 265.24 676.81 265.26 676.81 265.26 Z M 632.97 258.83 641.5 250.28 655.8 259.77 674.37 250.42 687.53 251.49 665.63 279.52 632.97 258.83 Z" fill-rule="evenodd"/>
<path d="M 656.33 285.56 656.32 285.59 656.3 285.64 656.33 285.56 Z M 641.71 276.66 637.12 262.1 665.54 279.46 657.37 283.91 645.66 298.07 632.99 286.27 641.71 276.66 Z" fill-rule="evenodd"/>
<path d="M 615.82 411.56 615.79 411.57 615.79 411.55 615.82 411.56 Z M 616 407.85 615.93 407.81 616.36 407.53 616 407.85 Z M 578.27 372.25 569.97 360.87 545.65 352.91 539.4 355.83 533.14 352.95 534.9 347.37 527.28 345.53 494 363.38 497.36 347.68 491.05 340.47 494.51 328.95 489.78 325.45 493.87 322.39 489.88 322.98 492.22 314.95 487.24 306.88 492.54 304.4 488.91 299.41 494.29 299.39 485.53 294.41 500.61 273.42 514.62 287.1 532.56 278.22 537.06 270.84 533.73 262.71 540.36 257.62 552.83 263.94 582.12 247.76 590.84 261.53 612.78 244.73 631.93 253.4 641.71 276.66 633.14 286.84 640.49 297.5 648.82 296.18 636.35 317.26 620.2 328.58 618.34 353.93 622.09 374.1 619.3 381.11 615.74 397.3 617.09 406.65 610.99 411.86 607.65 418.29 590.79 401.63 604.33 378.81 597.72 373.3 578.27 372.25 Z M 619.51 358.71 619.53 358.71 619.53 358.73 619.51 358.71 Z M 619.22 355.37 619.24 355.37 619.23 355.38 619.22 355.37 Z M 619.22 355.05 619.22 355.05 619.22 355.04 619.22 355.05 Z M 619.21 355.03 619.21 355.02 619.22 355.03 619.21 355.03 Z M 619.19 355.03 619.18 355.03 619.19 355 619.19 355.03 Z M 624.84 411.76 624.86 411.78 624.79 411.81 624.84 411.76 Z M 624.86 411.76 624.87 411.76 624.86 411.76 624.86 411.76 Z M 624.61 411.63 624.54 411.62 624.66 411.58 624.61 411.63 Z M 624.6 411.49 624.66 411.51 624.64 411.56 624.6 411.49 Z M 624.72 411.51 624.68 411.46 624.82 411.45 624.72 411.51 Z M 624.93 411.43 624.93 411.44 624.91 411.44 624.93 411.43 Z M 620.28 380.77 620.28 380.77 620.27 380.75 620.28 380.77 Z M 620.92 379.92 620.92 379.94 620.91 379.93 620.92 379.92 Z M 620.85 377.31 620.87 377.27 620.87 377.28 620.85 377.31 Z M 620.58 338.56 620.49 338.5 620.54 338.49 620.58 338.56 Z M 620.12 335.7 620.11 335.67 620.13 335.67 620.12 335.7 Z M 620.44 330.56 620.42 330.56 620.44 330.53 620.44 330.56 Z M 621.19 330.45 621.18 330.43 621.2 330.43 621.19 330.45 Z" fill-rule="evenodd"/>
<path d="M 693.8 224.05 693.79 224.05 693.79 224.05 693.8 224.05 Z M 693.77 224.04 693.78 224.04 693.77 224.04 693.77 224.04 Z M 693.77 224.01 693.78 224 693.78 224.01 693.77 224.01 Z M 693.83 223.82 693.83 223.82 693.84 223.79 693.83 223.82 Z M 693.8 223.79 693.81 223.79 693.8 223.8 693.8 223.79 Z M 624.53 228.63 626.7 206.64 629.07 205.79 635.1 209.19 650.42 200.41 646.29 212.5 659.88 217.32 665.56 205.15 690.72 208.53 691.27 213.28 692.6 218.15 693.25 217.08 693.88 220.37 693.3 227.37 685.54 224.35 655.56 240.63 648.54 234.87 655.14 226.16 650.72 222.47 635.81 232.32 624.53 228.63 Z M 692.92 217.49 692.71 217.9 692.56 217.36 692.92 217.49 Z" fill-rule="evenodd"/>
<path d="M 689.87 246.14 689.84 246.2 689.77 246.16 689.87 246.14 Z M 632.97 258.83 628.67 250.33 612.78 244.73 588.08 261.03 590.01 255.81 577.79 247.82 591.38 237.77 592.55 223.26 607.01 223.6 617.88 232.8 624.53 228.63 635.81 232.32 650.72 222.47 655.14 226.16 648.54 234.87 655.01 240.67 685.54 224.35 693.17 227.36 687.52 251.47 674.37 250.42 655.8 259.77 641.5 250.28 632.97 258.83 Z M 690.8 242.11 690.85 241.89 690.98 241.98 690.8 242.11 Z M 693.04 232.07 693.04 232.06 693.1 232.07 693.04 232.07 Z M 735.57 162.35 735.59 162.36 735.59 162.37 735.57 162.35 Z M 735.51 162.32 735.52 162.33 735.51 162.35 735.51 162.32 Z M 735.46 161.91 735.47 161.93 735.46 161.92 735.46 161.91 Z M 735.44 161.91 735.45 161.9 735.46 161.91 735.44 161.91 Z M 735.86 162.34 735.84 162.3 735.87 162.31 735.86 162.34 Z M 735.8 162.31 735.8 162.29 735.82 162.31 735.8 162.31 Z M 735.98 162.27 735.97 162.26 735.97 162.26 735.98 162.27 Z M 735.95 162.23 735.95 162.24 735.94 162.25 735.95 162.23 Z M 736.17 162.12 736.17 162.11 736.18 162.11 736.17 162.12 Z M 736.29 161.52 736.35 161.96 735.74 162.23 735.75 162.42 735.57 162.29 735.18 162.49 734.85 162.39 735.01 162.41 736.29 161.52 Z M 736.11 161.55 736.12 161.54 736.12 161.54 736.11 161.55 Z M 736.28 161.47 736.33 161.46 736.33 161.49 736.28 161.47 Z M 736.29 161.44 736.28 161.39 736.36 161.36 736.29 161.44 Z M 736.37 161.34 736.28 161.27 736.57 161.13 736.37 161.34 Z" fill-rule="evenodd"/>
<path d="M 592.55 223.26 595.26 214.15 587.83 209.12 576.64 153.41 579.33 144.91 593.01 143.09 629.04 159.37 650.39 179.29 643.53 180.97 626.93 204.89 623.65 217.51 627.72 222.83 620.15 232.57 607.01 223.6 592.55 223.26 Z"/>
<path d="M 357.15 574.24 386.68 576.07 413.94 595.89 430.45 599.93 421.85 611.02 430.07 612.42 411.66 643.62 385.65 664.12 378.13 679.86 364.98 690.64 362.78 680.07 370.61 672.78 358.76 661.06 326.35 639.04 318.71 643.44 304.61 626.14 289.73 627.66 322.95 593.22 357.15 574.24 Z M 430.22 612.74 430.23 612.78 430.21 612.77 430.22 612.74 Z" fill-rule="evenodd"/>
<path d="M 643.53 180.97 650.39 179.29 681.59 185.06 690.78 208.56 665.56 205.15 659.83 217.33 646.29 212.5 650.76 200.44 635.1 209.19 627.23 206.24 643.53 180.97 Z M 654.08 179.06 654.06 179.06 654.05 179.03 654.08 179.06 Z" fill-rule="evenodd"/>
<path d="M 387.88 115.57 373.14 96.37 364.41 71.88 341.1 62.46 338.77 50.95 352.38 56.53 358.39 51.86 373.63 55.17 396.2 14.21 405.84 24.99 412.94 56.14 417.13 61.77 426.4 64.01 426.94 75.94 387.88 115.57 Z M 419.38 59.42 417.47 60.85 415.78 58.4 419.38 59.42 Z M 417.35 55.7 417.52 56.4 415.21 55.82 417.35 55.7 Z" fill-rule="evenodd"/>
<path d="M 453.12 550.78 453.16 550.8 453.15 550.8 453.12 550.78 Z M 453.89 548.89 453.92 548.9 453.9 548.94 453.89 548.89 Z M 453.78 548.89 453.77 548.87 453.82 548.89 453.78 548.89 Z M 425.24 498.73 439.12 524.28 437.27 530.13 450.07 530.08 450.53 537.43 459.94 539.99 449.72 553.25 432.85 557.78 414.91 553.62 400.04 566.26 360.65 558.02 356.21 546.93 343.31 543.89 354.5 508.76 372.44 492.94 425.24 498.73 Z" fill-rule="evenodd"/>
<path d="M 438.97 216.31 456.26 199 457.91 192.92 447 188.44 461.63 186.53 469.2 191.56 471.37 204.67 464.89 221.31 477.23 236.25 487.3 235.57 476.79 254.09 485.8 261.55 489.22 273.66 500.99 273.85 498.88 278.78 493.07 281.92 485.53 294.41 494.29 299.39 488.91 299.41 489.17 304.09 492.54 304.4 487.24 306.88 492.22 314.95 489.88 322.98 493.72 322.27 492.26 322.96 489.28 323.56 488.33 320.58 470.5 328.85 466.83 325.51 466.02 332 457.82 326.42 449.99 329.41 445.21 320.26 436.16 328.54 419.81 320.87 422.49 313.03 421.53 313.33 418.52 315.69 415.96 321.26 414.33 282.31 437.79 241.74 438.97 216.31 Z"/>
<path d="M 489.22 273.66 485.8 261.55 476.79 254.09 487.07 235.09 477.23 236.25 464.78 221.08 471.37 204.67 469.2 191.56 453.92 185.24 447 188.44 476.53 162.05 498.15 112.42 498.39 113.3 497.27 114.48 498.15 115.3 501.2 116.38 501.94 115.73 502.26 113.73 502.55 114.42 502.14 116.51 504.34 118.23 506.13 116.85 504.84 119.99 507.99 117.47 507.48 122.05 519.71 122.24 519.38 123.26 517.88 123.05 516.94 123.99 522.57 128.99 520.9 129.65 519.02 134.03 524.76 135.23 522.27 136.75 520.01 141.64 519.05 145.65 519.45 147.18 521.67 147.68 523.15 146.57 525.7 137.84 530.54 136.42 526.38 142.62 529.41 142.54 537.68 133.66 535.19 137.96 536.52 138.43 537.24 137.74 537.77 138.24 538.51 137.33 538.5 138.19 539.42 136.63 539.77 137.64 540.61 137.82 543.6 135.29 569.86 142.13 570.05 146.15 549.01 168.48 550.18 211.81 530.49 213.39 505.28 229.53 495.81 251.7 499.55 261.47 495.5 275.11 489.22 273.66 Z M 510.91 119.92 510.89 119.99 510.87 119.95 510.91 119.92 Z M 511.69 119.51 511.65 119.41 511.66 119.43 511.69 119.51 Z M 511.58 119.75 511.12 119.88 511.04 119.68 511.58 119.75 Z M 511.91 119.26 512.01 119.11 512.1 119.67 511.91 119.26 Z M 511.69 119.23 511.85 119.01 511.88 119.08 511.69 119.23 Z M 506.02 118.66 506.25 118.63 506.08 118.98 506.02 118.66 Z M 511.95 118.21 512.13 118.14 512.08 118.43 511.95 118.21 Z M 511.16 118.36 511.4 117.95 511.48 118.84 511.16 118.36 Z M 504.61 117.9 504.57 117.94 504.55 117.78 504.61 117.9 Z M 504.7 117.69 504.79 117.55 504.8 117.56 504.7 117.69 Z M 503.31 116.15 503.27 116.38 503.21 116.35 503.31 116.15 Z M 501.91 115.68 501.87 115.69 501.9 115.59 501.91 115.68 Z M 501.03 115.05 501.32 114.83 501.56 115.97 501.03 115.05 Z M 503.83 115.14 503.97 115.53 502.86 115.82 503.83 115.14 Z M 499.75 115 499.72 114.91 499.82 114.92 499.75 115 Z M 496.54 114.85 496.5 114.93 496.5 114.85 496.54 114.85 Z M 497.62 114.2 497.41 114.43 497.41 114.4 497.62 114.2 Z M 502.6 114.26 502.68 114.2 502.72 114.36 502.6 114.26 Z M 499.14 113.76 499.03 114.24 498.78 114.2 499.14 113.76 Z M 495.51 112.9 495.41 112.91 495.47 112.81 495.51 112.9 Z M 519.39 146.56 519.38 146.14 519.42 146.24 519.39 146.56 Z M 519.97 145.72 520.1 145.6 520.09 145.74 519.97 145.72 Z M 519.42 145.92 519.35 145.93 519.34 145.64 519.42 145.92 Z M 522.61 146.16 520.78 147.47 520.7 143.66 522.61 146.16 Z M 520.69 144.67 520.63 144.75 520.62 144.69 520.69 144.67 Z M 523.79 143.34 523.77 143.31 523.79 143.29 523.79 143.34 Z M 523.51 136.65 523.56 136.56 523.66 136.59 523.51 136.65 Z M 522.78 130.42 522.85 130.47 522.81 130.59 522.78 130.42 Z M 521.56 129.63 521.51 129.59 521.54 129.58 521.56 129.63 Z M 518.03 123.55 518.15 123.71 517.97 123.9 518.03 123.55 Z M 517.87 123.52 517.91 123.53 517.87 123.56 517.87 123.52 Z M 518.23 123.43 517.96 123.36 518.15 123.2 518.23 123.43 Z M 517.27 121.69 517.29 121.69 517.27 121.73 517.27 121.69 Z M 516.34 121.54 516.25 121.4 516.47 121.42 516.34 121.54 Z M 518.14 121.25 517.6 121.8 517.62 121.32 518.14 121.25 Z M 515.26 120.91 515.25 120.96 515.2 120.92 515.26 120.91 Z M 516.29 121.14 517.28 120 517.39 120.16 516.94 120.83 516.29 121.14 Z M 517.43 120.13 517.37 120 517.05 119.86 517.6 119.64 517.9 120.59 517.43 120.13 Z M 515.7 120.25 515.67 120.23 515.73 120.2 515.7 120.25 Z M 515.69 120.16 515.71 120.16 515.68 120.19 515.69 120.16 Z M 512.57 118.56 512.56 118.01 512.67 118.13 512.57 118.56 Z M 515.36 117.7 513.07 118.42 513.64 116.25 515.36 117.7 Z M 529.4 142.47 529.41 142.47 529.41 142.49 529.4 142.47 Z M 529.45 142.45 529.44 142.45 529.42 142.43 529.45 142.45 Z M 524.49 139.46 524.48 139.47 524.45 139.44 524.49 139.46 Z M 524.63 138.86 524.6 138.83 524.62 138.82 524.63 138.86 Z M 524.6 138.75 524.62 138.74 524.63 138.76 524.6 138.75 Z M 524.57 138.4 524.69 138.46 524.65 138.57 524.57 138.4 Z M 524.73 138.48 524.71 138.47 524.72 138.47 524.73 138.48 Z M 536.76 138.18 536.73 138.21 536.72 138.18 536.76 138.18 Z M 536.2 137.77 536.23 137.75 536.21 137.8 536.2 137.77 Z M 540.46 137.54 540.55 137.79 540.46 137.7 540.46 137.54 Z M 533.68 137.57 533.67 137.59 533.67 137.52 533.68 137.57 Z M 533.72 137.42 533.71 137.5 533.7 137.47 533.72 137.42 Z M 533.62 137.15 533.65 137.15 533.64 137.18 533.62 137.15 Z M 533.38 137.1 533.69 136.66 533.81 136.78 533.38 137.1 Z M 534.82 136.57 534.81 136.57 534.81 136.56 534.82 136.57 Z M 535.03 136.46 534.82 136.55 534.85 135.9 535.03 136.46 Z M 537.93 135.91 539.18 135.6 538.83 136.72 537.93 135.91 Z M 539.54 135.78 539.81 136.37 539.28 136.41 539.54 135.78 Z" fill-rule="evenodd"/>
<path d="M 267.71 89.2 247.5 89.2 238.69 109.23 228.77 102.68 222.83 105.05 221.96 121.81 203.95 107.68 209.51 99.62 200.38 59.66 187.81 50.49 176.38 49.65 175.36 32.52 163.47 17.98 196 30.01 204.62 19.97 230.53 14.01 237.75 6.64 235.37 1.55 246.13 1 245.32 13.97 254.01 16.49 256.74 24.09 250.43 30.84 248.66 47.97 253.63 62.8 267.84 71.55 267.71 89.2 Z"/>
<path d="M 421.85 611.02 429.13 597.07 413.94 595.89 386.68 576.07 357.15 574.24 360.53 557.97 400.04 566.26 414.91 553.62 432.85 557.78 449.83 553.17 448.18 565.61 449.59 573.3 450.38 574.02 452.14 573.81 449.47 576.07 453.98 579.16 449.73 586.44 446.89 598.42 430.07 612.39 421.85 611.02 Z M 445.83 599.74 445.83 599.73 445.84 599.74 445.83 599.74 Z M 446.99 598.51 446.99 598.52 446.98 598.51 446.99 598.51 Z M 446.95 598.47 446.94 598.5 446.91 598.49 446.95 598.47 Z M 447.8 596.84 447.85 596.83 447.84 596.87 447.8 596.84 Z M 448.87 594.71 448.87 594.64 448.92 594.57 448.87 594.71 Z M 448.78 593.36 448.78 593.32 448.8 593.32 448.78 593.36 Z M 448.82 593.23 448.82 593.21 448.85 593.2 448.82 593.23 Z M 448.75 592.29 448.76 592.29 448.75 592.3 448.75 592.29 Z M 448.99 591.67 448.97 591.64 449.02 591.62 448.99 591.67 Z M 449.25 590.76 449.24 590.77 449.25 590.76 449.25 590.76 Z M 449.29 590.76 449.29 590.76 449.29 590.76 449.29 590.76 Z M 449.27 590.75 449.28 590.74 449.28 590.75 449.27 590.75 Z M 449.22 590.53 449.21 590.53 449.22 590.53 449.22 590.53 Z M 449.21 590.52 449.22 590.51 449.23 590.52 449.21 590.52 Z M 449.44 588.74 449.42 588.73 449.44 588.7 449.44 588.74 Z M 449.31 571.03 449.35 571.02 449.34 571.03 449.31 571.03 Z M 449.04 569.7 449.11 569.73 449.09 569.73 449.04 569.7 Z M 449.35 568.3 449.34 568.29 449.36 568.29 449.35 568.3 Z M 449.14 566.77 449.06 566.77 449.08 566.72 449.14 566.77 Z M 449.42 566.14 449.42 566.12 449.42 566.12 449.42 566.14 Z M 448.44 565.86 448.44 565.88 448.39 565.87 448.44 565.86 Z M 448.49 564.83 448.46 564.77 448.51 564.79 448.49 564.83 Z M 449.71 595.17 449.71 595.17 449.71 595.18 449.71 595.17 Z M 449.73 595.18 449.72 595.17 449.73 595.16 449.73 595.18 Z M 449.72 595.17 449.71 595.17 449.72 595.16 449.72 595.17 Z M 449.75 589.58 449.75 589.58 449.75 589.57 449.75 589.58 Z M 450.71 587.8 450.72 587.75 450.81 587.83 450.71 587.8 Z M 450.98 586.18 451.18 586.01 451.15 586.08 450.98 586.18 Z M 451.36 586.09 451.41 586.02 451.5 586.04 451.36 586.09 Z M 451.21 586.02 451.2 586.03 451.2 586.02 451.21 586.02 Z M 451.04 585.94 451.01 586.01 450.98 585.98 451.04 585.94 Z M 451.07 577.09 451.04 577.11 451.04 577.1 451.07 577.09 Z M 451.08 577.08 451.07 577.08 451.06 577.06 451.08 577.08 Z M 450.95 576.7 450.94 576.65 451.01 576.66 450.95 576.7 Z M 450.8 573.77 450.64 573.82 450.82 573.66 450.8 573.77 Z M 450.13 571.13 450.12 571.14 450.12 571.13 450.13 571.13 Z M 450.1 571.13 450.11 571.13 450.11 571.13 450.1 571.13 Z M 450.43 562.68 450.41 562.68 450.42 562.66 450.43 562.68 Z M 450.02 562.39 450.02 562.38 450.04 562.37 450.02 562.39 Z M 450.09 561.85 450.12 561.87 450.07 561.87 450.09 561.85 Z M 450.28 561.73 450.27 561.72 450.38 561.72 450.28 561.73 Z M 450.11 561.62 450.12 561.62 450.14 561.73 450.11 561.62 Z M 451.09 560.42 451.07 560.44 451.07 560.4 451.09 560.42 Z M 451.08 560.32 451.1 560.31 451.11 560.35 451.08 560.32 Z M 451.15 560.17 451.11 560.2 451.12 560.15 451.15 560.17 Z M 451.11 560.09 451.14 560.1 451.13 560.13 451.11 560.09 Z M 451.67 557.15 451.68 557.17 451.64 557.17 451.67 557.15 Z M 451.75 556.85 451.73 556.86 451.74 556.85 451.75 556.85 Z M 451.74 556.77 451.76 556.78 451.74 556.8 451.74 556.77 Z M 451.74 556.76 451.74 556.76 451.74 556.75 451.74 556.76 Z M 449.93 553.16 449.93 553.16 449.9 553.19 449.93 553.16 Z M 452.5 586.35 452.51 586.34 452.51 586.35 452.5 586.35 Z M 452.78 586.2 452.67 586.27 452.71 586.23 452.78 586.2 Z M 452.77 586.17 452.75 586.17 452.74 586.15 452.77 586.17 Z M 452.72 586.12 452.74 586.11 452.74 586.12 452.72 586.12 Z M 452.73 586.1 452.73 586.1 452.73 586.11 452.73 586.1 Z M 452.07 583.72 452.16 583.48 452.2 583.52 452.07 583.72 Z M 453.46 582.06 453.47 582.06 453.47 582.07 453.46 582.06 Z M 453.42 582.06 453.43 582.06 453.44 582.06 453.42 582.06 Z M 453.55 582.01 453.58 582.02 453.52 582.09 453.55 582.01 Z M 453.98 579.89 453.9 579.94 453.9 579.91 453.98 579.89 Z M 453.99 579.88 454.07 579.82 454.08 579.86 453.99 579.88 Z M 454.19 579.09 454.2 579.07 454.22 579.09 454.19 579.09 Z M 454.19 579.05 454.18 579.04 454.19 579.04 454.19 579.05 Z M 454.17 579.03 454.18 579.03 454.18 579.03 454.17 579.03 Z M 453.85 578.78 453.86 578.74 453.89 578.77 453.85 578.78 Z M 454.06 578.68 454.06 578.67 454.07 578.67 454.06 578.68 Z M 454.08 578.67 454.07 578.66 454.08 578.66 454.08 578.67 Z M 454 576.1 454.05 576.56 453.69 576.28 454 576.1 Z M 454.44 576.19 454.56 576.01 454.52 576.11 454.44 576.19 Z M 452.08 574.99 451.97 574.96 452.01 574.87 452.08 574.99 Z M 453.12 574.46 453.19 574.37 453.26 574.47 453.12 574.46 Z M 453.31 574.48 453.29 574.43 453.31 574.43 453.31 574.48 Z M 451.79 556.81 451.77 556.67 451.84 556.68 451.79 556.81 Z M 451.94 556.54 451.94 556.54 451.94 556.54 451.94 556.54 Z M 451.85 556.5 451.84 556.54 451.83 556.53 451.85 556.5 Z M 451.76 556.49 451.81 556.48 451.8 556.49 451.76 556.49 Z M 451.91 556.48 451.9 556.48 451.9 556.48 451.91 556.48 Z" fill-rule="evenodd"/>
<path d="M 500.61 273.42 495.22 275.58 499.55 261.47 495.81 251.7 505.26 229.54 530.49 213.39 550.18 211.81 549.03 168.41 569.26 142.8 578.42 145.51 579.72 179.96 585.44 185.39 588.88 211.57 595.26 214.15 589.17 226.14 591.38 237.77 567.97 257.89 552.31 264 540.78 257.63 535.16 260.81 537.05 270.89 528.62 281.99 514.62 287.1 500.61 273.42 Z"/>
</g>
</svg>