<svg version="1.1" id="Layer_1" xmlns="http://www.w3.org/2000/svg" xmlns:xlink="http://www.w3.org/1999/xlink" x="0px" y="0px"
	 width="100%" viewBox="0 0 547 568" enable-background="new 0 0 547 568" xml:space="preserve">
<path fill="" opacity="1.000000" stroke="none" 
	d="
M298.000000,569.000000 
	C198.688812,569.000000 99.877625,569.000000 1.033216,569.000000 
	C1.033216,379.731232 1.033216,190.462463 1.033216,1.096847 
	C183.227875,1.096847 365.455841,1.096847 547.841919,1.096847 
	C547.841919,190.333221 547.841919,379.666595 547.841919,569.000000 
	C464.795746,569.000000 381.647858,569.000000 298.000000,569.000000 
M16.568668,22.179186 
	C16.294947,22.407572 16.246279,22.676651 16.206865,23.739040 
	C16.281580,24.510712 16.356295,25.282383 16.257006,26.937586 
	C16.316082,29.935888 16.375158,32.934189 16.209101,36.684952 
	C16.280228,37.459785 16.351357,38.234623 16.305607,39.499569 
	C16.344645,39.662922 16.383684,39.826275 16.203423,40.903820 
	C16.241602,49.609318 16.279781,58.314819 16.087479,67.803802 
	C16.131807,68.886055 16.176136,69.968307 16.111929,71.975517 
	C16.094362,103.558846 16.061058,135.142181 16.063715,166.725510 
	C16.066301,197.471817 16.105709,228.218109 15.998355,259.497894 
	C16.041880,259.675690 16.085405,259.853516 15.989144,260.915466 
	C15.867509,263.282104 15.745874,265.648712 14.894862,268.306396 
	C14.595884,269.176544 14.037827,270.046082 14.035839,270.916901 
	C13.986828,292.394440 13.970652,313.872253 14.065659,335.349487 
	C14.070951,336.545929 15.082265,337.737885 15.915486,339.834686 
	C15.818717,344.912354 15.721947,349.990051 14.887724,355.325470 
	C14.687008,363.314178 14.476154,371.302734 14.342313,379.292542 
	C14.338863,379.498474 15.178661,379.718536 15.915674,380.837341 
	C15.964218,409.942444 16.018114,439.047516 16.052143,468.152618 
	C16.055187,470.756775 15.929475,473.361023 15.317731,476.185455 
	C15.497283,476.804291 15.676835,477.423096 15.981566,478.853516 
	C15.943838,489.575531 15.906111,500.297546 15.257295,511.593536 
	C14.961415,519.955627 14.534884,528.316467 14.451549,536.680664 
	C14.427443,539.100159 15.388563,541.529419 16.164351,544.381897 
	C16.396135,544.608704 16.627920,544.835449 16.901457,545.774170 
	C17.942976,547.157898 18.984495,548.541687 20.130707,550.248779 
	C20.130707,550.248779 20.020229,550.570251 20.332582,551.201111 
	C22.287897,551.800659 24.241957,552.918823 26.198717,552.923523 
	C70.581932,553.031067 114.965446,553.026489 159.348862,552.984863 
	C160.891602,552.983398 162.433807,552.385193 164.753296,552.119202 
	C167.938599,552.032227 171.123947,551.867493 174.309204,551.869629 
	C267.850464,551.931213 361.391693,552.021301 454.932953,552.076843 
	C479.314209,552.091309 503.695496,551.989746 528.076782,551.977173 
	C535.091064,551.973572 537.160950,550.035400 536.979431,542.894531 
	C536.879517,538.963379 536.130005,535.046692 536.066223,531.117065 
	C535.917664,521.959839 536.061646,512.798218 535.977051,503.639374 
	C535.934021,498.983337 534.447144,495.302765 528.441650,494.275574 
	C503.018707,494.182892 477.595764,494.082581 452.172760,494.036957 
	C451.458954,494.035675 450.744110,494.619171 449.104675,495.117157 
	C438.399780,495.065369 427.694885,495.013580 416.472565,494.291016 
	C415.486481,494.191620 414.500427,494.005432 413.514313,494.005219 
	C349.147003,493.991333 284.779663,493.986542 220.412369,494.034424 
	C219.100250,494.035400 217.788589,494.665649 215.559616,495.180481 
	C213.844650,494.785645 212.130295,494.049255 210.414627,494.046234 
	C173.112198,493.980286 135.809601,493.982666 98.507149,494.044373 
	C97.003929,494.046875 95.501884,494.759155 93.303268,495.568237 
	C87.646530,495.576874 81.960945,495.916412 76.347603,495.427216 
	C74.177597,495.238098 72.171349,493.170013 70.733635,491.422577 
	C70.820641,489.932526 70.983711,488.442444 70.983841,486.952393 
	C70.996902,332.563965 71.000206,178.175507 70.964157,23.787081 
	C70.963791,22.217365 70.434776,20.647772 70.017265,18.457266 
	C69.665756,17.724821 69.314240,16.992378 68.589882,15.478049 
	C52.961758,15.317790 37.333652,15.154880 21.705254,15.027986 
	C21.513140,15.026425 21.317274,15.487075 21.123158,15.731975 
	C21.276817,15.796254 21.430470,15.860552 21.584139,15.924808 
	C21.737810,15.989063 21.891497,16.053274 21.963385,16.438070 
	C21.963385,16.438070 21.906509,16.763977 21.159813,16.842686 
	C19.773884,18.555510 18.387957,20.268333 16.987286,21.938211 
	C16.987286,21.938211 16.941927,21.936127 16.568668,22.179186 
M329.566895,319.554474 
	C329.688324,305.456573 329.816223,291.358734 329.897705,277.260620 
	C329.899994,276.864716 329.406189,276.465912 329.025848,275.129150 
	C329.025238,261.698303 329.077423,248.267014 328.971832,234.836975 
	C328.954285,232.609879 328.247772,230.388199 328.235779,227.633881 
	C327.835144,227.431168 327.435028,227.052444 327.033813,227.051239 
	C313.610718,227.011292 300.187408,226.991104 286.764404,227.034714 
	C285.867920,227.037613 284.973145,227.564148 283.136810,227.962067 
	C267.459167,227.988083 251.781494,228.014099 235.247284,228.076782 
	C234.804718,229.695709 233.982040,231.313339 233.976532,232.933777 
	C233.890869,258.080414 233.893158,283.227448 233.950821,308.374268 
	C233.954346,309.911163 234.590286,311.446625 235.041290,313.804962 
	C235.440842,316.090057 235.840393,318.375122 235.823380,321.203735 
	C236.308746,321.467834 236.793839,321.962463 237.279541,321.963074 
	C266.394562,322.000244 295.509644,322.012299 324.624542,321.937775 
	C325.737518,321.934906 326.848267,321.059204 327.803864,320.241394 
	C327.803864,320.241394 327.939819,319.884216 328.379852,319.900665 
	C328.379852,319.900665 328.814331,319.970093 329.566895,319.554474 
M446.808289,227.708237 
	C446.228149,227.757248 445.648010,227.806244 444.498871,227.956146 
	C444.309143,227.922775 444.119446,227.889389 443.379883,227.233917 
	C428.242798,227.151657 413.105652,227.036194 397.968781,227.063904 
	C396.987915,227.065689 396.009094,228.169022 394.115417,228.999222 
	C380.543427,228.999222 366.971436,228.999222 352.998718,228.999222 
	C352.998718,259.726959 352.998718,289.924683 353.198273,320.918610 
	C354.179077,321.309937 355.159210,322.041046 356.140808,322.043091 
	C384.690155,322.102905 413.239777,322.117706 441.788788,322.005005 
	C443.190979,321.999481 444.588379,320.778015 446.001495,319.170166 
	C446.093353,307.758514 446.185181,296.346863 446.767426,285.526154 
	C446.946960,287.413727 447.126526,289.301331 447.306091,291.188904 
	C447.977814,270.759369 447.988586,250.377441 447.927460,229.995712 
	C447.925537,229.360718 447.179291,228.727951 446.932587,228.149597 
	C446.932587,228.149597 446.848083,228.288193 446.808289,227.708237 
M118.313637,227.850754 
	C117.942169,228.431061 117.231941,229.023651 117.252464,229.589737 
	C117.427353,234.413818 117.871048,239.230255 117.972145,244.054474 
	C118.139320,252.030884 118.111198,260.011383 118.017754,268.801208 
	C118.066788,283.203918 118.115829,297.606598 118.031380,312.877502 
	C118.076591,315.208618 118.121803,317.539703 117.600639,320.279083 
	C119.224815,320.881256 120.846764,322.001312 122.473503,322.008301 
	C149.028030,322.122375 175.583160,322.099335 202.138153,322.090820 
	C203.560043,322.090363 204.981888,321.944427 206.795227,321.844696 
	C205.932053,321.019867 205.457458,320.566376 205.815140,320.035828 
	C207.579849,319.673462 209.344559,319.311096 211.748398,318.411316 
	C211.831192,288.997589 211.917984,259.583862 211.945389,230.170090 
	C211.945694,229.845840 211.171799,229.520889 209.995331,228.690857 
	C204.660492,228.514816 199.325638,228.338776 193.063507,228.025650 
	C180.358566,227.928452 167.653610,227.831268 155.588333,227.216705 
	C159.107697,227.216705 162.627060,227.216705 166.146423,227.216705 
	C166.141068,226.816238 166.135712,226.415771 166.130356,226.015305 
	C150.663895,226.015305 135.197403,226.008255 119.731247,226.078583 
	C119.484764,226.079697 119.242599,227.029770 118.313637,227.850754 
M156.594971,110.216461 
	C160.451508,110.216461 164.308060,110.216461 168.164597,110.216461 
	C152.061646,109.056984 135.971985,109.041832 119.882751,109.114807 
	C119.267189,109.117607 118.655464,109.970200 117.970657,110.915329 
	C117.970657,110.915329 117.491226,111.033119 116.783806,111.338577 
	C116.514336,111.896042 116.009949,112.453133 116.009079,113.011017 
	C115.964020,141.735825 115.943901,170.460754 116.035339,199.185303 
	C116.038284,200.111038 117.229568,201.032959 118.001831,202.428772 
	C118.640480,202.921356 119.279121,203.413925 120.411179,204.623840 
	C120.882309,204.763947 121.353165,205.025574 121.824600,205.026596 
	C139.060959,205.064301 156.298019,205.157791 173.533127,205.016052 
	C176.415085,204.992355 179.288513,203.933075 182.782242,204.017914 
	C183.332870,204.326859 183.880981,204.899689 184.434525,204.904999 
	C192.167877,204.979187 199.903152,205.042892 207.634430,204.907486 
	C208.614655,204.890335 209.574875,203.730881 211.363159,202.723389 
	C211.607605,201.290527 212.059250,199.858429 212.064514,198.424683 
	C212.118835,183.639328 212.184341,168.852737 212.017792,154.069092 
	C211.991318,151.718384 210.831100,149.380447 210.025665,146.108566 
	C210.014023,143.984695 210.076202,141.857346 209.976166,139.737640 
	C209.727646,134.471771 209.405136,129.209381 209.030853,123.041283 
	C209.064682,119.710121 209.098511,116.378952 209.694550,112.690163 
	C208.137970,112.533051 206.581406,112.375946 204.333786,111.837135 
	C193.407440,111.815277 182.481094,111.793419 170.921005,111.123436 
	C165.929962,110.992409 160.938934,110.861389 156.594971,110.216461 
M293.487061,203.686859 
	C304.072784,203.785873 314.658508,203.923065 325.244171,203.916077 
	C326.154541,203.915466 327.064301,202.958847 328.174408,201.944229 
	C328.450989,201.301910 328.727570,200.659592 329.703583,199.520370 
	C329.810211,199.207825 330.009827,198.895416 330.010284,198.582733 
	C330.049561,171.382767 330.092224,144.182724 330.022339,116.982979 
	C330.019836,116.009209 328.895782,115.038322 328.039124,113.385681 
	C327.350494,112.850220 326.661865,112.314758 326.301727,111.162392 
	C325.008514,110.741974 323.716309,109.958504 322.421906,109.954803 
	C297.159912,109.882561 271.897614,109.883400 246.635544,109.944901 
	C245.101379,109.948639 243.568756,110.581825 241.137939,110.985832 
	C239.214005,110.985832 237.290070,110.985832 234.889389,110.985832 
	C234.889389,126.479118 234.889389,141.266174 234.249847,156.591080 
	C234.170013,171.288727 234.080765,185.986359 234.060211,200.684097 
	C234.059647,201.085846 234.799057,201.488647 235.599152,202.123077 
	C235.765732,202.388565 235.897720,202.670258 235.739563,203.640594 
	C236.306381,204.119141 236.870285,205.011230 237.440445,205.015244 
	C249.166290,205.097672 260.893005,205.103256 272.618927,205.028595 
	C273.453461,205.023300 274.283356,204.281235 276.033508,203.930573 
	C281.680908,203.620880 287.328278,203.311188 293.487061,203.686859 
M320.893280,437.958069 
	C321.723267,437.971649 322.553223,437.994415 323.383240,437.997437 
	C329.992371,438.021332 329.995117,438.020142 329.998657,431.449921 
	C330.003967,421.653748 330.004700,411.857574 330.007843,402.061401 
	C330.013397,384.793884 330.047455,367.526245 329.958557,350.259216 
	C329.952942,349.168732 328.990448,348.083130 328.151642,346.364624 
	C327.421204,345.881622 326.690735,345.398621 325.435944,344.258575 
	C324.780701,344.167969 324.125519,343.998383 323.470245,343.998138 
	C295.162781,343.987732 266.855286,343.982941 238.547943,344.034851 
	C237.575241,344.036621 236.603638,344.624756 234.792664,345.285522 
	C234.511459,346.029968 233.985596,346.774048 233.984344,347.518951 
	C233.936249,376.124939 233.905869,404.731171 234.037003,433.336578 
	C234.042419,434.522583 235.618912,435.701416 237.066788,437.519623 
	C240.403748,437.393646 243.740707,437.267700 247.623657,437.766632 
	C271.747406,437.797607 295.871155,437.828583 320.893280,437.958069 
M353.227142,203.750275 
	C354.490234,204.196869 355.752319,205.029999 357.016571,205.033264 
	C385.540771,205.106873 414.065277,205.113846 442.589233,205.004837 
	C443.797852,205.000214 445.001709,203.760361 446.047455,202.158752 
	C446.078857,189.083069 446.110260,176.007401 446.767639,162.384338 
	C446.831726,147.504288 446.905090,132.624237 446.924133,117.744118 
	C446.924866,117.182861 446.398773,116.620934 445.959412,115.367401 
	C445.601349,114.257004 445.243317,113.146606 445.432983,111.635025 
	C444.091431,111.058792 442.751556,109.984138 441.408112,109.979706 
	C412.800507,109.885475 384.192413,109.945450 355.584686,109.869034 
	C352.175934,109.859924 350.851257,111.050156 350.860992,114.523422 
	C350.940216,142.798431 350.875092,171.073883 350.987732,199.348679 
	C350.992584,200.570099 352.303802,201.786316 352.976929,202.967484 
	C352.976929,202.967484 353.011444,202.934509 353.227142,203.750275 
M438.468719,344.264160 
	C411.101288,344.170959 383.733826,344.062592 356.366394,344.062805 
	C355.602051,344.062805 354.837708,345.224670 353.337646,346.334412 
	C353.234039,346.649628 353.039703,346.964905 353.039795,347.280090 
	C353.049316,376.237396 353.056610,405.194733 353.175812,434.151642 
	C353.179565,435.065308 354.346588,435.974213 355.518005,436.948456 
	C355.700531,436.930023 355.883026,436.911591 356.986023,437.011505 
	C386.664215,436.997772 416.342438,436.984009 446.671021,436.548309 
	C447.287628,429.021729 447.904205,421.495148 448.520782,413.968567 
	C448.104980,413.946777 447.689148,413.925018 447.273315,413.903229 
	C446.896362,420.280334 446.519409,426.657471 446.001770,432.102203 
	C446.001770,403.244232 446.001770,374.386230 446.001770,345.353699 
	C443.241913,345.190033 441.112396,345.063751 438.468719,344.264160 
M116.989021,396.253723 
	C116.688858,396.606506 116.128174,396.957886 116.126259,397.312286 
	C116.061943,409.244781 116.004135,421.178040 116.122757,433.109406 
	C116.132011,434.039276 117.430229,434.956299 118.825844,436.191071 
	C119.358444,436.762634 119.878860,437.817383 120.425514,437.831146 
	C125.899422,437.969055 131.380020,438.044128 136.854065,437.924103 
	C144.261597,437.761597 151.665024,437.412354 159.619980,437.765869 
	C175.932556,437.841919 192.245132,437.935852 208.557739,437.940277 
	C209.359299,437.940521 210.161087,437.158569 210.949905,435.835938 
	C210.949905,405.708832 210.949905,375.581757 210.949905,344.871552 
	C207.839523,344.871552 205.388382,344.871552 202.392914,344.241119 
	C176.513885,344.166229 150.634842,344.085999 124.755775,344.051697 
	C124.194359,344.050964 123.632248,344.576569 122.217972,344.998108 
	C118.364197,344.375061 117.941040,346.545441 117.948326,349.706726 
	C117.983910,365.148895 117.839592,380.591461 116.989021,396.253723 
M426.499146,439.004089 
	C432.422577,439.004089 438.346039,439.004089 444.269470,439.004089 
	C444.264954,438.752411 444.260468,438.500702 444.255981,438.249023 
	C431.417847,438.249023 418.579712,438.249023 405.741577,438.249023 
	C405.737671,438.500702 405.733795,438.752411 405.729919,439.004089 
	C412.319824,439.004089 418.909760,439.004089 426.499146,439.004089 
z"/>
<path fill="#FAF6F5" opacity="1.000000" stroke="none" 
	d="
M16.128929,260.031372 
	C16.085405,259.853516 16.041880,259.675690 16.358458,259.059113 
	C17.134081,257.758362 17.900110,256.900696 17.910730,256.033752 
	C18.013306,247.659927 17.998716,239.284561 17.999210,230.909622 
	C18.002251,179.335785 18.010153,127.761932 17.958548,76.188141 
	C17.956818,74.459541 17.337961,72.731567 17.002262,70.653763 
	C16.771158,69.209595 16.544561,68.114952 16.317963,67.020317 
	C16.279781,58.314819 16.241602,49.609318 16.446104,40.353786 
	C16.852074,39.461159 16.763308,39.196392 16.422483,39.009457 
	C16.351357,38.234623 16.280228,37.459785 16.526787,35.983521 
	C16.706650,32.206074 16.568829,29.130064 16.431011,26.054054 
	C16.356295,25.282383 16.281580,24.510712 16.479458,23.234447 
	C16.931520,22.493082 16.994812,22.228506 16.941927,21.936127 
	C16.941927,21.936127 16.987286,21.938211 17.333977,21.913006 
	C19.089283,20.179859 20.497896,18.471918 21.906509,16.763977 
	C21.906509,16.763977 21.963385,16.438070 22.473194,16.249138 
	C38.309578,16.126783 53.636154,16.193359 68.962730,16.259935 
	C69.314240,16.992378 69.665756,17.724821 70.004227,19.225628 
	C69.959724,151.847641 69.917244,283.701294 69.906387,415.554932 
	C69.904289,441.022614 70.025925,466.490326 70.090492,491.958008 
	C72.171349,493.170013 74.177597,495.238098 76.347603,495.427216 
	C81.960945,495.916412 87.646530,495.576874 94.114014,495.438477 
	C106.887321,495.320343 118.849892,495.331970 131.112091,495.484009 
	C132.262756,495.517273 133.113770,495.410217 134.344177,495.388489 
	C135.494690,495.416656 136.265854,495.359497 137.424515,495.473083 
	C139.195450,495.529999 140.578873,495.416138 142.424820,495.388733 
	C167.551331,495.425293 192.215302,495.375427 217.159042,495.426910 
	C217.623123,495.454987 217.807449,495.381744 218.367950,495.393188 
	C219.508575,495.420288 220.273041,495.362701 221.329681,495.461975 
	C222.477310,495.527130 223.332764,495.435425 224.514328,495.379059 
	C225.493332,495.389099 226.146225,495.363800 226.984940,495.480225 
	C227.516357,495.699005 227.792465,495.593750 228.427765,495.391968 
	C232.497040,495.436188 236.137650,495.394592 239.929932,495.497986 
	C240.462479,495.546417 240.843338,495.449890 241.678314,495.366211 
	C276.606262,495.327271 311.080139,495.294464 345.553925,495.217224 
	C369.365997,495.163879 393.177979,495.049103 416.989990,494.961792 
	C427.694885,495.013580 438.399780,495.065369 450.028687,495.103271 
	C476.958282,495.036133 502.963806,494.982880 528.969360,494.929596 
	C534.447144,495.302765 535.934021,498.983337 535.977051,503.639374 
	C536.061646,512.798218 535.917664,521.959839 536.066223,531.117065 
	C536.130005,535.046692 536.879517,538.963379 536.979431,542.894531 
	C537.160950,550.035400 535.091064,551.973572 528.076782,551.977173 
	C503.695496,551.989746 479.314209,552.091309 454.932953,552.076843 
	C361.391693,552.021301 267.850464,551.931213 174.309204,551.869629 
	C171.123947,551.867493 167.938599,552.032227 163.903076,552.011169 
	C120.486244,551.868652 77.919510,551.875122 35.353188,551.746033 
	C30.241058,551.730530 25.131163,550.980042 20.020229,550.570251 
	C20.020229,550.570251 20.130707,550.248779 20.071363,549.705078 
	C18.961248,547.794983 17.910477,546.428650 16.859703,545.062256 
	C16.627920,544.835449 16.396135,544.608704 16.104729,543.923828 
	C16.108366,543.308167 16.171627,543.150452 16.457853,542.968872 
	C16.911436,542.795288 17.142056,542.645569 17.372677,542.495850 
	C16.993418,542.332886 16.614155,542.169983 16.146271,541.563354 
	C16.116793,538.410767 16.175936,535.701904 16.603487,532.877197 
	C18.200384,529.076782 19.451155,525.390625 16.144535,521.558594 
	C15.987045,517.746765 15.927713,514.383179 15.868383,511.019562 
	C15.906111,500.297546 15.943838,489.575531 16.248972,478.398254 
	C17.009731,477.303070 17.503084,476.663147 17.997593,475.553101 
	C17.935095,429.444672 17.884806,383.806335 17.737608,338.168274 
	C17.733557,336.912354 16.688093,335.659760 16.147331,334.177551 
	C16.480234,333.494354 16.794054,333.039215 17.263676,332.075653 
	C17.612274,308.978088 17.835400,286.389069 17.916769,263.799500 
	C17.921286,262.545624 16.751911,261.287506 16.128929,260.031372 
z"/>
<path fill="#FBF7F6" opacity="1.000000" stroke="none" 
	d="
M159.070221,437.143188 
	C151.665024,437.412354 144.261597,437.761597 136.854065,437.924103 
	C131.380020,438.044128 125.899422,437.969055 120.425514,437.831146 
	C119.878860,437.817383 119.358444,436.762634 118.422371,435.674225 
	C117.854446,434.450958 117.689995,433.744537 117.622803,432.768036 
	C117.655518,432.317780 117.590973,432.137604 117.603828,431.497681 
	C117.707115,419.369934 117.733002,407.701904 117.758896,396.033905 
	C117.839592,380.591461 117.983910,365.148895 117.948326,349.706726 
	C117.941040,346.545441 118.364197,344.375061 123.104347,344.996979 
	C150.306229,344.954437 176.621719,344.912994 202.937225,344.871552 
	C205.388382,344.871552 207.839523,344.871552 210.949905,344.871552 
	C210.949905,375.581757 210.949905,405.708832 210.496643,436.369476 
	C193.052322,436.983093 176.061264,437.063141 159.070221,437.143188 
z"/>
<path fill="#FAF7F6" opacity="1.000000" stroke="none" 
	d="
M352.998718,320.122375 
	C352.998718,289.924683 352.998718,259.726959 352.998718,228.999222 
	C366.971436,228.999222 380.543427,228.999222 395.036804,228.912811 
	C411.948700,228.502945 427.939209,228.179474 443.929749,227.856018 
	C444.119446,227.889389 444.309143,227.922775 445.102264,228.054169 
	C446.086456,228.197525 446.467285,228.242859 446.848083,228.288193 
	C446.848083,228.288193 446.932587,228.149597 446.752686,228.584442 
	C446.682251,231.145660 446.905670,233.273254 446.883087,235.398239 
	C446.707764,251.910843 446.485077,268.422943 446.277039,284.935211 
	C446.185181,296.346863 446.093353,307.758514 445.531677,319.712097 
	C429.613770,320.220734 414.165649,320.178772 398.717560,320.156586 
	C383.477936,320.134735 368.238342,320.132935 352.998718,320.122375 
z"/>
<path fill="#FAF6F5" opacity="1.000000" stroke="none" 
	d="
M325.960297,344.915619 
	C326.690735,345.398621 327.421204,345.881622 328.230957,347.146973 
	C328.362793,364.274872 328.415283,380.620422 328.373413,397.233826 
	C328.341736,397.680267 328.404419,397.858917 328.427551,398.491852 
	C328.388031,411.460876 328.388031,423.975555 328.388031,437.163727 
	C325.523132,437.163727 322.760681,437.163727 319.535339,437.086273 
	C295.074188,437.053131 271.075928,437.097412 247.077667,437.141724 
	C243.740707,437.267700 240.403748,437.393646 236.647400,436.815491 
	C236.142578,435.789520 235.985229,435.468353 235.981964,435.145660 
	C235.685440,405.847443 235.393616,376.549194 235.156357,347.250488 
	C235.150406,346.514771 235.755341,345.774048 236.538330,345.067322 
	C266.654266,345.037842 296.307281,344.976746 325.960297,344.915619 
z"/>
<path fill="#FAF6F5" opacity="1.000000" stroke="none" 
	d="
M444.885284,112.036209 
	C445.243317,113.146606 445.601349,114.257004 445.966187,116.173752 
	C446.029236,132.297302 446.085480,147.614517 446.141724,162.931717 
	C446.110260,176.007401 446.078857,189.083069 445.657654,202.762405 
	C417.276733,203.342484 389.285553,203.328781 361.294464,203.279892 
	C358.533264,203.275070 355.772430,203.054779 353.011444,202.934509 
	C353.011444,202.934509 352.976929,202.967484 352.990479,202.516754 
	C352.784668,173.463226 352.574066,144.860321 352.331940,116.257690 
	C352.308319,113.470917 352.007111,111.325546 356.294006,111.356750 
	C381.539551,111.540550 406.787750,111.334976 432.034973,111.351326 
	C436.318542,111.354095 440.601868,111.796776 444.885284,112.036209 
z"/>
<path fill="#F9F6F4" opacity="1.000000" stroke="none" 
	d="
M211.109283,318.948730 
	C209.344559,319.311096 207.579849,319.673462 204.933792,320.022644 
	C181.699356,319.992371 159.346252,319.975281 136.830750,319.657837 
	C133.338379,317.980133 129.995758,316.414551 126.573631,320.123535 
	C124.098824,320.182281 122.050583,320.125427 120.002869,319.634399 
	C119.390556,316.803284 118.777710,314.406281 118.164864,312.009308 
	C118.115829,297.606598 118.066788,283.203918 118.473045,268.288147 
	C119.285675,266.245972 119.936440,264.719849 119.952301,263.187225 
	C120.048752,253.867142 120.156395,244.541473 119.913071,235.226761 
	C119.832138,232.128235 120.235115,229.683441 123.249725,227.938995 
	C123.667809,227.914291 123.835030,227.963852 124.229263,228.381561 
	C126.712349,228.821472 128.968430,228.893219 131.169098,229.073761 
	C131.113678,229.182541 130.863632,229.187363 130.863632,229.187363 
	C130.863632,229.187363 130.745743,228.971329 131.241013,229.197937 
	C136.230148,229.691360 140.912827,231.782394 145.245392,227.962265 
	C145.666077,227.932220 145.834351,227.992310 146.206909,228.390106 
	C147.612656,229.151657 148.811737,229.936279 150.015839,229.944077 
	C163.503281,230.031570 176.991943,230.044846 190.478775,229.919632 
	C191.654785,229.908707 192.820374,228.774948 193.990799,228.162735 
	C199.325638,228.338776 204.660492,228.514816 210.393326,229.400726 
	C210.750671,258.738586 210.705597,287.366577 210.688065,315.994568 
	C210.687469,316.979218 210.962646,317.964020 211.109283,318.948730 
z"/>
<path fill="#FAF6F5" opacity="1.000000" stroke="none" 
	d="
M234.889404,156.053238 
	C234.889389,141.266174 234.889389,126.479118 234.889389,110.985832 
	C237.290070,110.985832 239.214005,110.985832 241.615875,111.036133 
	C242.093826,111.086441 241.943466,111.174446 242.070862,111.550827 
	C246.638718,112.396965 251.075623,113.174294 255.520950,113.225998 
	C258.379730,113.259247 261.250916,112.225494 264.508972,111.578156 
	C266.948395,111.580360 268.995300,111.674423 271.104431,112.209763 
	C275.261383,114.724022 279.227539,114.768372 283.254333,111.807281 
	C283.663055,111.776314 283.826508,111.838478 284.190491,112.164230 
	C284.760223,112.322289 285.129425,112.216766 285.565338,112.316254 
	C286.088898,112.314476 286.545746,112.107681 287.087738,112.303055 
	C288.649994,113.136261 290.121887,113.917747 291.605194,113.940063 
	C299.731323,114.062355 307.860321,113.998398 315.988312,113.998497 
	C326.001068,113.998604 325.954498,113.998917 326.011932,123.764839 
	C326.102386,139.147018 326.227661,154.529343 326.471283,169.909500 
	C326.487732,170.946777 327.620209,171.966370 328.357666,173.322083 
	C328.398773,174.102234 328.315857,174.554459 327.911255,175.037933 
	C327.236664,175.486252 326.883789,175.903320 326.530914,176.320389 
	C327.098175,176.544815 327.665466,176.769257 328.360901,177.390381 
	C328.434998,179.161057 328.380951,180.535034 327.980835,182.169128 
	C327.423584,186.368500 327.092621,190.305817 327.027954,194.247513 
	C326.917511,200.981720 326.987610,200.994949 320.458801,200.998886 
	C306.677338,201.007202 292.895264,200.938553 279.115265,201.081696 
	C277.399414,201.099518 275.694885,202.209686 273.662048,202.891479 
	C273.125275,202.910767 272.911591,202.852295 272.742462,202.544785 
	C272.643158,202.465073 272.499359,202.634399 271.936829,202.903748 
	C259.677124,202.991913 247.836105,202.980042 235.995087,202.968170 
	C235.897720,202.670258 235.765732,202.388565 235.428375,201.542969 
	C235.134857,185.992981 235.012131,171.023102 234.889404,156.053238 
z"/>
<path fill="#4AB8BE" opacity="1.000000" stroke="none" 
	d="
M356.065521,436.893158 
	C355.883026,436.911591 355.700531,436.930023 355.261597,436.457581 
	C355.006866,420.519653 355.042694,405.072479 354.999420,389.625519 
	C354.964813,377.280548 354.927429,364.934021 354.688721,352.592102 
	C354.617432,348.906006 355.431702,347.058929 359.626526,347.507935 
	C363.022003,347.871368 366.497528,347.457794 369.937866,347.436401 
	C393.406708,347.290527 416.876617,347.237152 440.343506,346.940369 
	C444.203033,346.891571 445.070282,348.223663 445.051971,351.837860 
	C444.918518,378.151794 444.890869,404.467316 445.071625,430.780670 
	C445.100433,434.975677 443.843353,436.095490 439.725830,436.068085 
	C413.745483,435.894928 387.763367,435.961243 361.781982,436.019714 
	C359.875854,436.024017 357.970978,436.588898 356.065521,436.893158 
z"/>
<path fill="#FBF7F6" opacity="1.000000" stroke="none" 
	d="
M171.554749,111.771561 
	C182.481094,111.793419 193.407440,111.815277 205.164856,112.292122 
	C207.041397,112.847336 208.086868,112.947563 209.132355,113.047791 
	C209.098511,116.378952 209.064682,119.710121 208.759491,123.781174 
	C208.325439,136.885834 208.121613,149.250320 208.040115,161.615631 
	C208.026321,163.707321 208.539230,165.802475 208.808472,167.524872 
	C209.054123,167.180298 209.300125,167.206909 209.063629,167.569260 
	C208.411621,175.353989 208.196686,182.802765 208.161194,190.252396 
	C208.158447,190.830887 209.413895,191.415375 210.203629,192.324387 
	C210.289413,193.104965 210.256119,193.558228 209.902924,194.042587 
	C209.232361,194.488632 208.881729,194.903580 208.531097,195.318527 
	C209.094925,195.542023 209.658752,195.765518 210.344696,196.398926 
	C210.484634,198.231766 210.502472,199.654694 210.148315,201.068405 
	C207.850815,201.693527 205.925278,202.327835 203.539368,203.055603 
	C196.074463,203.199234 189.069962,203.249435 181.605377,203.184204 
	C168.096085,203.026199 155.046890,202.983597 141.959930,202.649307 
	C138.848068,201.321014 135.730057,199.716431 132.745239,203.140961 
	C132.331421,203.172028 132.165894,203.109894 131.853928,202.744781 
	C128.004791,201.908951 124.302101,201.376114 120.000641,200.757111 
	C120.000641,199.063477 120.000648,197.277908 120.000648,195.492340 
	C120.000618,175.910965 120.049782,156.329224 119.908356,136.748871 
	C119.896873,135.159912 118.580490,133.580383 117.738617,131.554367 
	C117.645027,127.743118 117.683289,124.373985 118.084274,120.963753 
	C118.893921,120.404594 119.340851,119.886528 119.787773,119.368462 
	C119.099014,118.910728 118.410248,118.452995 117.575577,117.596176 
	C117.526848,115.798691 117.624039,114.400284 118.199432,113.002510 
	C134.057922,113.002182 149.438553,113.050835 164.818130,112.945526 
	C167.066238,112.930138 169.309341,112.181122 171.554749,111.771561 
z"/>
<path fill="#53D2D6" opacity="1.000000" stroke="none" 
	d="
M356.525757,436.952332 
	C357.970978,436.588898 359.875854,436.024017 361.781982,436.019714 
	C387.763367,435.961243 413.745483,435.894928 439.725830,436.068085 
	C443.843353,436.095490 445.100433,434.975677 445.071625,430.780670 
	C444.890869,404.467316 444.918518,378.151794 445.051971,351.837860 
	C445.070282,348.223663 444.203033,346.891571 440.343506,346.940369 
	C416.876617,347.237152 393.406708,347.290527 369.937866,347.436401 
	C366.497528,347.457794 363.022003,347.871368 359.626526,347.507935 
	C355.431702,347.058929 354.617432,348.906006 354.688721,352.592102 
	C354.927429,364.934021 354.964813,377.280548 354.999420,389.625519 
	C355.042694,405.072479 355.006866,420.519653 354.988251,436.426025 
	C354.346588,435.974213 353.179565,435.065308 353.175812,434.151642 
	C353.056610,405.194733 353.049316,376.237396 353.039795,347.280090 
	C353.039703,346.964905 353.234039,346.649628 354.165466,346.108704 
	C356.814941,345.797546 358.636017,345.652496 360.458282,345.635590 
	C386.633057,345.392731 412.807953,345.167145 438.982849,344.937439 
	C441.112396,345.063751 443.241913,345.190033 446.001770,345.353699 
	C446.001770,374.386230 446.001770,403.244232 446.030762,432.961731 
	C446.046722,434.870941 446.033661,435.920624 446.020630,436.970276 
	C416.342438,436.984009 386.664215,436.997772 356.525757,436.952332 
z"/>
<path fill="#070608" opacity="1.000000" stroke="none" 
	d="
M70.412064,491.690308 
	C70.025925,466.490326 69.904289,441.022614 69.906387,415.554932 
	C69.917244,283.701294 69.959724,151.847641 70.071869,19.536055 
	C70.434776,20.647772 70.963791,22.217365 70.964157,23.787081 
	C71.000206,178.175507 70.996902,332.563965 70.983841,486.952393 
	C70.983711,488.442444 70.820641,489.932526 70.412064,491.690308 
z"/>
<path fill="#FFFEFD" opacity="1.000000" stroke="none" 
	d="
M17.006767,71.003296 
	C17.337961,72.731567 17.956818,74.459541 17.958548,76.188141 
	C18.010153,127.761932 18.002251,179.335785 17.999210,230.909622 
	C17.998716,239.284561 18.013306,247.659927 17.910730,256.033752 
	C17.900110,256.900696 17.134081,257.758362 16.423756,258.792358 
	C16.105709,228.218109 16.066301,197.471817 16.063715,166.725510 
	C16.061058,135.142181 16.094362,103.558846 16.363163,71.507751 
	C16.614399,71.039993 17.006765,71.003296 17.006767,71.003296 
z"/>
<path fill="#302C2D" opacity="1.000000" stroke="none" 
	d="
M445.159119,111.835617 
	C440.601868,111.796776 436.318542,111.354095 432.034973,111.351326 
	C406.787750,111.334976 381.539551,111.540550 356.294006,111.356750 
	C352.007111,111.325546 352.308319,113.470917 352.331940,116.257690 
	C352.574066,144.860321 352.784668,173.463226 353.005280,202.535492 
	C352.303802,201.786316 350.992584,200.570099 350.987732,199.348679 
	C350.875092,171.073883 350.940216,142.798431 350.860992,114.523422 
	C350.851257,111.050156 352.175934,109.859924 355.584686,109.869034 
	C384.192413,109.945450 412.800507,109.885475 441.408112,109.979706 
	C442.751556,109.984138 444.091431,111.058792 445.159119,111.835617 
z"/>
<path fill="#F7F6F5" opacity="1.000000" stroke="none" 
	d="
M236.239944,320.660217 
	C235.840393,318.375122 235.440842,316.090057 235.070679,312.932190 
	C235.290161,301.324646 235.480240,290.589844 236.015610,280.123840 
	C236.573532,282.177765 236.957779,283.961731 236.969955,285.748169 
	C237.032394,294.901245 237.151031,304.058685 236.924316,313.206543 
	C236.833481,316.871887 237.874832,318.157562 241.681870,318.081635 
	C252.994385,317.856079 264.315582,317.893982 275.630890,318.033020 
	C285.807068,318.158051 295.992981,318.988190 306.149933,318.683716 
	C313.564087,318.461487 321.523163,321.511963 328.482178,316.363495 
	C328.617126,317.462555 328.609558,318.211792 328.414246,319.044678 
	C328.041656,319.346497 327.946136,319.598450 327.939819,319.884216 
	C327.939819,319.884216 327.803864,320.241394 327.420105,320.483398 
	C296.770874,320.703674 266.505402,320.681946 236.239944,320.660217 
z"/>
<path fill="#FFFEFD" opacity="1.000000" stroke="none" 
	d="
M16.128250,334.405609 
	C16.688093,335.659760 17.733557,336.912354 17.737608,338.168274 
	C17.884806,383.806335 17.935095,429.444672 17.642113,475.545837 
	C16.811502,475.994202 16.337532,475.979736 15.863560,475.965271 
	C15.929475,473.361023 16.055187,470.756775 16.052143,468.152618 
	C16.018114,439.047516 15.964218,409.942444 15.811056,379.918640 
	C15.679352,371.022552 15.652265,363.045135 15.625177,355.067719 
	C15.721947,349.990051 15.818717,344.912354 15.810954,338.816315 
	C15.678563,336.289551 15.650704,334.781189 15.503347,333.665283 
	C15.631985,334.173767 15.880119,334.289703 16.128250,334.405609 
z"/>
<path fill="#060407" opacity="1.000000" stroke="none" 
	d="
M226.799118,495.338501 
	C226.146225,495.363800 225.493332,495.389099 224.237320,495.186340 
	C222.768631,495.073853 221.903076,495.189453 221.037506,495.305115 
	C220.273041,495.362701 219.508575,495.420288 218.156616,495.216919 
	C217.202911,494.965942 216.836685,494.975891 216.458008,494.988831 
	C216.445526,494.991852 216.476715,495.002319 216.476715,495.002319 
	C217.788589,494.665649 219.100250,494.035400 220.412369,494.034424 
	C284.779663,493.986542 349.147003,493.991333 413.514313,494.005219 
	C414.500427,494.005432 415.486481,494.191620 416.731262,494.626404 
	C393.177979,495.049103 369.365997,495.163879 345.553925,495.217224 
	C311.080139,495.294464 276.606262,495.327271 241.317596,495.217163 
	C240.261246,495.154510 240.019760,495.253754 239.778259,495.352997 
	C236.137650,495.394592 232.497040,495.436188 228.246368,495.227234 
	C227.260483,494.873322 226.981415,494.993927 226.799118,495.338501 
z"/>
<path fill="#F6F5F4" opacity="1.000000" stroke="none" 
	d="
M328.233643,172.994171 
	C327.620209,171.966370 326.487732,170.946777 326.471283,169.909500 
	C326.227661,154.529343 326.102386,139.147018 326.011932,123.764839 
	C325.954498,113.998917 326.001068,113.998604 315.988312,113.998497 
	C307.860321,113.998398 299.731323,114.062355 291.605194,113.940063 
	C290.121887,113.917747 288.649994,113.136261 287.545166,112.189522 
	C300.602722,111.708984 313.287994,111.744141 325.973236,111.779297 
	C326.661865,112.314758 327.350494,112.850220 328.093079,114.185471 
	C328.152283,117.797409 328.158569,120.609558 328.162659,123.421700 
	C328.186584,139.945862 328.210022,156.470016 328.233643,172.994171 
z"/>
<path fill="#F7F6F5" opacity="1.000000" stroke="none" 
	d="
M327.859650,228.164017 
	C328.247772,230.388199 328.954285,232.609879 328.971832,234.836975 
	C329.077423,248.267014 329.025238,261.698303 329.015564,276.059143 
	C328.861359,284.991425 328.717377,292.993744 328.185730,300.969391 
	C327.198975,299.611969 326.065063,298.270172 326.092377,296.952393 
	C326.218842,290.848755 326.890686,284.754150 326.955841,278.651917 
	C327.101166,265.043152 327.001373,251.431778 327.001160,237.821457 
	C327.001038,230.476990 327.003906,230.424637 319.904694,229.994217 
	C317.286438,229.835480 314.628387,230.188705 312.029266,229.917542 
	C310.641144,229.772720 309.339905,228.795364 308.463287,228.124817 
	C315.237976,228.091934 321.548798,228.127975 327.859650,228.164017 
z"/>
<path fill="#050307" opacity="1.000000" stroke="none" 
	d="
M216.018158,495.091400 
	C216.476715,495.002319 216.445526,494.991852 216.513046,495.130554 
	C216.580566,495.269257 216.879288,495.325562 216.879288,495.325562 
	C192.215302,495.375427 167.551331,495.425293 142.160492,495.208618 
	C139.968109,495.062164 138.502548,495.182251 137.037003,495.302338 
	C136.265854,495.359497 135.494690,495.416656 134.060059,495.208344 
	C132.535187,495.076477 131.673828,495.210052 130.812454,495.343628 
	C118.849892,495.331970 106.887321,495.320343 94.462021,495.224731 
	C95.501884,494.759155 97.003929,494.046875 98.507149,494.044373 
	C135.809601,493.982666 173.112198,493.980286 210.414627,494.046234 
	C212.130295,494.049255 213.844650,494.785645 216.018158,495.091400 
z"/>
<path fill="#3B3638" opacity="1.000000" stroke="none" 
	d="
M353.119293,203.342392 
	C355.772430,203.054779 358.533264,203.275070 361.294464,203.279892 
	C389.285553,203.328781 417.276733,203.342484 445.737823,203.231018 
	C445.001709,203.760361 443.797852,205.000214 442.589233,205.004837 
	C414.065277,205.113846 385.540771,205.106873 357.016571,205.033264 
	C355.752319,205.029999 354.490234,204.196869 353.119293,203.342392 
z"/>
<path fill="#3B3638" opacity="1.000000" stroke="none" 
	d="
M353.098511,320.520477 
	C368.238342,320.132935 383.477936,320.134735 398.717560,320.156586 
	C414.165649,320.178772 429.613770,320.220734 445.524933,320.188416 
	C444.588379,320.778015 443.190979,321.999481 441.788788,322.005005 
	C413.239777,322.117706 384.690155,322.102905 356.140808,322.043091 
	C355.159210,322.041046 354.179077,321.309937 353.098511,320.520477 
z"/>
<path fill="#151315" opacity="1.000000" stroke="none" 
	d="
M117.721237,113.001877 
	C117.624039,114.400284 117.526848,115.798691 117.437546,117.959877 
	C117.537468,119.483383 117.629509,120.244118 117.721550,121.004845 
	C117.683289,124.373985 117.645027,127.743118 117.614235,132.009033 
	C117.703430,155.922745 117.785156,178.939713 117.866890,201.956665 
	C117.229568,201.032959 116.038284,200.111038 116.035339,199.185303 
	C115.943901,170.460754 115.964020,141.735825 116.009079,113.011017 
	C116.009949,112.453133 116.514336,111.896042 117.101349,111.522385 
	C117.519676,112.138084 117.620461,112.569984 117.721237,113.001877 
z"/>
<path fill="#252223" opacity="1.000000" stroke="none" 
	d="
M236.075378,345.035645 
	C235.755341,345.774048 235.150406,346.514771 235.156357,347.250488 
	C235.393616,376.549194 235.685440,405.847443 235.981964,435.145660 
	C235.985229,435.468353 236.142578,435.789520 236.345734,436.497498 
	C235.618912,435.701416 234.042419,434.522583 234.037003,433.336578 
	C233.905869,404.731171 233.936249,376.124939 233.984344,347.518951 
	C233.985596,346.774048 234.511459,346.029968 235.324493,345.107025 
	C235.856323,344.928528 236.075363,345.035645 236.075378,345.035645 
z"/>
<path fill="#2D292B" opacity="1.000000" stroke="none" 
	d="
M136.993164,319.958191 
	C159.346252,319.975281 181.699356,319.992371 204.517654,320.061157 
	C205.457458,320.566376 205.932053,321.019867 206.795227,321.844696 
	C204.981888,321.944427 203.560043,322.090363 202.138153,322.090820 
	C175.583160,322.099335 149.028030,322.122375 122.473503,322.008301 
	C120.846764,322.001312 119.224815,320.881256 118.191666,320.142700 
	C119.189232,320.027039 119.595787,320.047791 120.002335,320.068542 
	C122.050583,320.125427 124.098824,320.182281 127.023666,320.194244 
	C130.931229,320.085602 133.962204,320.021912 136.993164,319.958191 
z"/>
<path fill="#F7F6F5" opacity="1.000000" stroke="none" 
	d="
M236.103836,228.040115 
	C251.781494,228.014099 267.459167,227.988083 284.053528,227.971863 
	C287.988495,228.042023 291.006775,228.102386 294.211517,228.395645 
	C294.570648,229.009415 294.743347,229.390274 294.916046,229.771118 
	C294.450348,229.848145 293.984680,229.992218 293.518951,229.992508 
	C276.654205,230.003036 259.787933,230.121719 242.925812,229.910248 
	C238.913025,229.859940 237.746918,231.135345 237.922470,235.017151 
	C238.207001,241.308105 238.145844,247.627029 237.902359,253.921448 
	C237.835846,255.640884 236.596756,257.314972 235.778870,258.552765 
	C235.809265,248.077148 235.956558,238.058640 236.103836,228.040115 
z"/>
<path fill="#FDFDFC" opacity="1.000000" stroke="none" 
	d="
M117.934357,202.192719 
	C117.785156,178.939713 117.703430,155.922745 117.746078,132.451141 
	C118.580490,133.580383 119.896873,135.159912 119.908356,136.748871 
	C120.049782,156.329224 120.000618,175.910965 120.000648,195.492340 
	C120.000648,197.277908 120.000641,199.063477 120.000641,200.757111 
	C124.302101,201.376114 128.004791,201.908951 131.409424,202.848907 
	C127.380173,203.472839 123.648972,203.689667 119.917770,203.906494 
	C119.279121,203.413925 118.640480,202.921356 117.934357,202.192719 
z"/>
<path fill="#0A0A0B" opacity="1.000000" stroke="none" 
	d="
M328.467773,396.966003 
	C328.415283,380.620422 328.362793,364.274872 328.391724,347.462280 
	C328.990448,348.083130 329.952942,349.168732 329.958557,350.259216 
	C330.047455,367.526245 330.013397,384.793884 330.007843,402.061401 
	C330.004700,411.857574 330.003967,421.653748 329.998657,431.449921 
	C329.995117,438.020142 329.992371,438.021332 323.383240,437.997437 
	C322.553223,437.994415 321.723267,437.971649 320.445435,437.735046 
	C319.997559,437.512024 319.998230,437.163727 319.998230,437.163727 
	C322.760681,437.163727 325.523132,437.163727 328.388031,437.163727 
	C328.388031,423.975555 328.388031,411.460876 328.614258,398.416992 
	C328.882477,397.759888 328.997925,397.586823 328.952362,397.512604 
	C328.826874,397.308258 328.633972,397.145325 328.467773,396.966003 
z"/>
<path fill="#F6F5F4" opacity="1.000000" stroke="none" 
	d="
M273.985107,202.813721 
	C275.694885,202.209686 277.399414,201.099518 279.115265,201.081696 
	C292.895264,200.938553 306.677338,201.007202 320.458801,200.998886 
	C326.987610,200.994949 326.917511,200.981720 327.027954,194.247513 
	C327.092621,190.305817 327.423584,186.368500 328.148315,182.547607 
	C328.775940,188.449753 328.890015,194.233521 329.004150,200.017273 
	C328.727570,200.659592 328.450989,201.301910 327.710327,202.216309 
	C315.822723,202.659409 304.399200,202.830444 292.975677,203.001495 
	C287.328278,203.311188 281.680908,203.620880 275.494873,203.718506 
	C274.632538,203.275528 274.308838,203.044632 273.985107,202.813721 
z"/>
<path fill="#0A0A0B" opacity="1.000000" stroke="none" 
	d="
M20.176407,550.885681 
	C25.131163,550.980042 30.241058,551.730530 35.353188,551.746033 
	C77.919510,551.875122 120.486244,551.868652 163.514557,551.984131 
	C162.433807,552.385193 160.891602,552.983398 159.348862,552.984863 
	C114.965446,553.026489 70.581932,553.031067 26.198717,552.923523 
	C24.241957,552.918823 22.287897,551.800659 20.176407,550.885681 
z"/>
<path fill="#2D292B" opacity="1.000000" stroke="none" 
	d="
M329.353851,199.768829 
	C328.890015,194.233521 328.775940,188.449753 328.494385,182.287506 
	C328.380951,180.535034 328.434998,179.161057 328.488159,177.067322 
	C328.402496,175.900604 328.317749,175.453644 328.232971,175.006683 
	C328.315857,174.554459 328.398773,174.102234 328.357666,173.322083 
	C328.210022,156.470016 328.186584,139.945862 328.162659,123.421700 
	C328.158569,120.609558 328.152283,117.797409 328.220703,114.525681 
	C328.895782,115.038322 330.019836,116.009209 330.022339,116.982979 
	C330.092224,144.182724 330.049561,171.382767 330.010284,198.582733 
	C330.009827,198.895416 329.810211,199.207825 329.353851,199.768829 
z"/>
<path fill="#2A2728" opacity="1.000000" stroke="none" 
	d="
M326.137482,111.470840 
	C313.287994,111.744141 300.602722,111.708984 287.460052,111.787354 
	C286.545746,112.107681 286.088898,112.314476 285.369659,112.128418 
	C284.734863,111.790588 284.362427,111.845627 283.989990,111.900650 
	C283.826508,111.838478 283.663055,111.776314 282.811035,111.693520 
	C278.429077,111.704758 274.735657,111.736618 271.042236,111.768478 
	C268.995300,111.674423 266.948395,111.580360 264.130188,111.405258 
	C256.220428,111.274300 249.081955,111.224373 241.943466,111.174446 
	C241.943466,111.174446 242.093826,111.086441 242.064621,111.004288 
	C243.568756,110.581825 245.101379,109.948639 246.635544,109.944901 
	C271.897614,109.883400 297.159912,109.882561 322.421906,109.954803 
	C323.716309,109.958504 325.008514,110.741974 326.137482,111.470840 
z"/>
<path fill="#050307" opacity="1.000000" stroke="none" 
	d="
M15.622845,333.272797 
	C15.650704,334.781189 15.678563,336.289551 15.665874,338.364929 
	C15.082265,337.737885 14.070951,336.545929 14.065659,335.349487 
	C13.970652,313.872253 13.986828,292.394440 14.035839,270.916901 
	C14.037827,270.046082 14.595884,269.176544 15.300535,268.631470 
	C15.679803,289.631866 15.653397,310.307129 15.487970,331.148438 
	C15.440248,331.967224 15.531547,332.620026 15.622845,333.272797 
z"/>
<path fill="#FFFEFD" opacity="1.000000" stroke="none" 
	d="
M15.626987,330.982422 
	C15.653397,310.307129 15.679803,289.631866 15.665224,268.485962 
	C15.745874,265.648712 15.867509,263.282104 16.059038,260.473419 
	C16.751911,261.287506 17.921286,262.545624 17.916769,263.799500 
	C17.835400,286.389069 17.612274,308.978088 17.148439,331.687988 
	C16.460598,331.533325 16.043791,331.257874 15.626987,330.982422 
z"/>
<path fill="#272325" opacity="1.000000" stroke="none" 
	d="
M235.675568,228.058441 
	C235.956558,238.058640 235.809265,248.077148 235.664124,259.008942 
	C235.667603,266.566498 235.668945,273.210754 235.670303,279.855042 
	C235.480240,290.589844 235.290161,301.324646 235.016022,312.521118 
	C234.590286,311.446625 233.954346,309.911163 233.950821,308.374268 
	C233.893158,283.227448 233.890869,258.080414 233.976532,232.933777 
	C233.982040,231.313339 234.804718,229.695709 235.675568,228.058441 
z"/>
<path fill="#363134" opacity="1.000000" stroke="none" 
	d="
M120.164474,204.265167 
	C123.648972,203.689667 127.380173,203.472839 131.555878,203.151886 
	C132.165894,203.109894 132.331421,203.172028 133.186829,203.241364 
	C136.583694,203.146042 139.290695,203.043518 141.997681,202.940979 
	C155.046890,202.983597 168.096085,203.026199 181.632904,203.192734 
	C182.120529,203.316681 182.165894,203.352295 182.165894,203.352295 
	C179.288513,203.933075 176.415085,204.992355 173.533127,205.016052 
	C156.298019,205.157791 139.060959,205.064301 121.824600,205.026596 
	C121.353165,205.025574 120.882309,204.763947 120.164474,204.265167 
z"/>
<path fill="#322D2F" opacity="1.000000" stroke="none" 
	d="
M210.222839,194.011490 
	C210.256119,193.558228 210.289413,193.104965 210.315338,191.867111 
	C210.054031,183.132858 209.800079,175.183182 209.546143,167.233521 
	C209.300125,167.206909 209.054123,167.180298 209.207520,167.381531 
	C209.802979,160.751785 209.999008,153.894196 210.195038,147.036606 
	C210.831100,149.380447 211.991318,151.718384 212.017792,154.069092 
	C212.184341,168.852737 212.118835,183.639328 212.064514,198.424683 
	C212.059250,199.858429 211.607605,201.290527 210.815964,202.931030 
	C210.268768,203.138687 210.013275,203.006439 210.195099,202.706940 
	C210.424713,201.964157 210.472519,201.520874 210.520309,201.077606 
	C210.502472,199.654694 210.484634,198.231766 210.470688,196.077332 
	C210.390656,194.901031 210.306747,194.456253 210.222839,194.011490 
z"/>
<path fill="#FDFDFC" opacity="1.000000" stroke="none" 
	d="
M118.199432,113.002510 
	C117.620461,112.569984 117.519676,112.138084 117.455063,111.369659 
	C117.491226,111.033119 117.970657,110.915329 118.424294,110.641281 
	C120.820206,110.443901 122.762489,110.520584 125.024185,110.709518 
	C126.223106,110.724709 127.102615,110.627632 128.444687,110.615341 
	C137.920807,110.710205 146.934341,110.720276 155.947891,110.730354 
	C160.938934,110.861389 165.929962,110.992409 171.237885,111.447495 
	C169.309341,112.181122 167.066238,112.930138 164.818130,112.945526 
	C149.438553,113.050835 134.057922,113.002182 118.199432,113.002510 
z"/>
<path fill="#121013" opacity="1.000000" stroke="none" 
	d="
M438.725769,344.600769 
	C412.807953,345.167145 386.633057,345.392731 360.458282,345.635590 
	C358.636017,345.652496 356.814941,345.797546 354.533356,345.863892 
	C354.837708,345.224670 355.602051,344.062805 356.366394,344.062805 
	C383.733826,344.062592 411.101288,344.170959 438.725769,344.600769 
z"/>
<path fill="#FFFEFD" opacity="1.000000" stroke="none" 
	d="
M193.527161,228.094193 
	C192.820374,228.774948 191.654785,229.908707 190.478775,229.919632 
	C176.991943,230.044846 163.503281,230.031570 150.015839,229.944077 
	C148.811737,229.936279 147.612656,229.151657 146.646729,228.297943 
	C149.571045,227.823410 152.259857,227.778748 154.948669,227.734085 
	C167.653610,227.831268 180.358566,227.928452 193.527161,228.094193 
z"/>
<path fill="#0A0A0B" opacity="1.000000" stroke="none" 
	d="
M236.031662,320.931976 
	C266.505402,320.681946 296.770874,320.703674 327.498169,320.657837 
	C326.848267,321.059204 325.737518,321.934906 324.624542,321.937775 
	C295.509644,322.012299 266.394562,322.000244 237.279541,321.963074 
	C236.793839,321.962463 236.308746,321.467834 236.031662,320.931976 
z"/>
<path fill="#FFFEFD" opacity="1.000000" stroke="none" 
	d="
M122.998863,228.013245 
	C120.235115,229.683441 119.832138,232.128235 119.913071,235.226761 
	C120.156395,244.541473 120.048752,253.867142 119.952301,263.187225 
	C119.936440,264.719849 119.285675,266.245972 118.546852,267.882629 
	C118.111198,260.011383 118.139320,252.030884 117.972145,244.054474 
	C117.871048,239.230255 117.427353,234.413818 117.252464,229.589737 
	C117.231941,229.023651 117.942169,228.431061 119.051094,227.799255 
	C120.858658,227.836258 121.928757,227.924744 122.998863,228.013245 
z"/>
<path fill="#0A0A0B" opacity="1.000000" stroke="none" 
	d="
M236.538315,345.067322 
	C236.075363,345.035645 235.856323,344.928528 235.743927,344.934052 
	C236.603638,344.624756 237.575241,344.036621 238.547943,344.034851 
	C266.855286,343.982941 295.162781,343.987732 323.470245,343.998138 
	C324.125519,343.998383 324.780701,344.167969 325.698120,344.587097 
	C296.307281,344.976746 266.654266,345.037842 236.538315,345.067322 
z"/>
<path fill="#0A0A0B" opacity="1.000000" stroke="none" 
	d="
M211.428833,318.680054 
	C210.962646,317.964020 210.687469,316.979218 210.688065,315.994568 
	C210.705597,287.366577 210.750671,258.738586 210.775314,229.653442 
	C211.171799,229.520889 211.945694,229.845840 211.945389,230.170090 
	C211.917984,259.583862 211.831192,288.997589 211.428833,318.680054 
z"/>
<path fill="#090709" opacity="1.000000" stroke="none" 
	d="
M446.522217,285.230682 
	C446.485077,268.422943 446.707764,251.910843 446.883087,235.398239 
	C446.905670,233.273254 446.682251,231.145660 446.676392,228.556702 
	C447.179291,228.727951 447.925537,229.360718 447.927460,229.995712 
	C447.988586,250.377441 447.977814,270.759369 447.306091,291.188904 
	C447.126526,289.301331 446.946960,287.413727 446.522217,285.230682 
z"/>
<path fill="#070608" opacity="1.000000" stroke="none" 
	d="
M123.249725,227.938995 
	C121.928757,227.924744 120.858658,227.836258 119.393478,227.642380 
	C119.242599,227.029770 119.484764,226.079697 119.731247,226.078583 
	C135.197403,226.008255 150.663895,226.015305 166.130356,226.015305 
	C166.135712,226.415771 166.141068,226.816238 166.146423,227.216705 
	C162.627060,227.216705 159.107697,227.216705 155.268494,227.475403 
	C152.259857,227.778748 149.571045,227.823410 146.442413,227.960236 
	C145.834351,227.992310 145.666077,227.932220 144.780060,227.869812 
	C139.727722,227.808487 135.393143,227.749496 131.055328,227.715607 
	C131.052094,227.740707 131.000641,227.695023 130.496521,227.707932 
	C127.995682,227.818359 125.998970,227.915878 124.002251,228.013397 
	C123.835030,227.963852 123.667809,227.914291 123.249725,227.938995 
z"/>
<path fill="#FFFEFD" opacity="1.000000" stroke="none" 
	d="
M210.110352,146.572586 
	C209.999008,153.894196 209.802979,160.751785 209.207870,167.752701 
	C208.539230,165.802475 208.026321,163.707321 208.040115,161.615631 
	C208.121613,149.250320 208.325439,136.885834 208.800232,124.233330 
	C209.405136,129.209381 209.727646,134.471771 209.976166,139.737640 
	C210.076202,141.857346 210.014023,143.984695 210.110352,146.572586 
z"/>
<path fill="#272325" opacity="1.000000" stroke="none" 
	d="
M273.662048,202.891495 
	C274.308838,203.044632 274.632538,203.275528 275.035828,203.694092 
	C274.283356,204.281235 273.453461,205.023300 272.618927,205.028595 
	C260.893005,205.103256 249.166290,205.097672 237.440445,205.015244 
	C236.870285,205.011230 236.306381,204.119141 235.867325,203.304382 
	C247.836105,202.980042 259.677124,202.991913 272.021973,202.891296 
	C272.525787,202.778809 272.697937,202.793823 272.697937,202.793823 
	C272.911591,202.852295 273.125275,202.910767 273.662048,202.891495 
z"/>
<path fill="#070608" opacity="1.000000" stroke="none" 
	d="
M202.665070,344.556335 
	C176.621719,344.912994 150.306229,344.954437 123.530594,344.926208 
	C123.632248,344.576569 124.194359,344.050964 124.755775,344.051697 
	C150.634842,344.085999 176.513885,344.166229 202.665070,344.556335 
z"/>
<path fill="#060407" opacity="1.000000" stroke="none" 
	d="
M117.525528,433.038116 
	C117.689995,433.744537 117.854446,434.450958 118.074127,435.518311 
	C117.430229,434.956299 116.132011,434.039276 116.122757,433.109406 
	C116.004135,421.178040 116.061943,409.244781 116.126259,397.312286 
	C116.128174,396.957886 116.688858,396.606506 117.373955,396.143799 
	C117.733002,407.701904 117.707115,419.369934 117.409027,431.568024 
	C117.266396,432.411438 117.395966,432.724792 117.525528,433.038116 
z"/>
<path fill="#080609" opacity="1.000000" stroke="none" 
	d="
M124.704765,110.597260 
	C122.762489,110.520584 120.820206,110.443901 118.459946,110.397018 
	C118.655464,109.970200 119.267189,109.117607 119.882751,109.114807 
	C135.971985,109.041832 152.061646,109.056984 168.164597,110.216461 
	C164.308060,110.216461 160.451508,110.216461 156.271423,110.473404 
	C146.934341,110.720276 137.920807,110.710205 128.170212,110.377960 
	C126.523705,110.236282 125.614235,110.416779 124.704765,110.597260 
z"/>
<path fill="#070608" opacity="1.000000" stroke="none" 
	d="
M528.705505,494.602600 
	C502.963806,494.982880 476.958282,495.036133 450.491241,495.009705 
	C450.744110,494.619171 451.458954,494.035675 452.172760,494.036957 
	C477.595764,494.082581 503.018707,494.182892 528.705505,494.602600 
z"/>
<path fill="#080609" opacity="1.000000" stroke="none" 
	d="
M319.535339,437.086273 
	C319.998230,437.163727 319.997559,437.512024 319.996216,437.685791 
	C295.871155,437.828583 271.747406,437.797607 247.350662,437.454163 
	C271.075928,437.097412 295.074188,437.053131 319.535339,437.086273 
z"/>
<path fill="#080609" opacity="1.000000" stroke="none" 
	d="
M443.654816,227.544968 
	C427.939209,228.179474 411.948700,228.502945 395.493744,228.793182 
	C396.009094,228.169022 396.987915,227.065689 397.968781,227.063904 
	C413.105652,227.036194 428.242798,227.151657 443.654816,227.544968 
z"/>
<path fill="#050307" opacity="1.000000" stroke="none" 
	d="
M210.013275,203.006439 
	C210.013275,203.006439 210.268768,203.138687 210.406555,203.119659 
	C209.574875,203.730881 208.614655,204.890335 207.634430,204.907486 
	C199.903152,205.042892 192.167877,204.979187 184.434525,204.904999 
	C183.880981,204.899689 183.332870,204.326859 182.474060,203.685104 
	C182.165894,203.352295 182.120529,203.316681 182.092987,203.308151 
	C189.069962,203.249435 196.074463,203.199234 203.959579,203.154602 
	C206.564545,203.108917 208.288910,203.057678 210.013275,203.006439 
z"/>
<path fill="#070608" opacity="1.000000" stroke="none" 
	d="
M159.345093,437.454529 
	C176.061264,437.063141 193.052322,436.983093 210.503082,436.821960 
	C210.161087,437.158569 209.359299,437.940521 208.557739,437.940277 
	C192.245132,437.935852 175.932556,437.841919 159.345093,437.454529 
z"/>
<path fill="#050307" opacity="1.000000" stroke="none" 
	d="
M15.256451,355.196594 
	C15.652265,363.045135 15.679352,371.022552 15.665819,379.465973 
	C15.178661,379.718536 14.338863,379.498474 14.342313,379.292542 
	C14.476154,371.302734 14.687008,363.314178 15.256451,355.196594 
z"/>
<path fill="#0A0A0B" opacity="1.000000" stroke="none" 
	d="
M68.776306,15.868992 
	C53.636154,16.193359 38.309578,16.126783 22.514091,16.088856 
	C21.891497,16.053274 21.737810,15.989063 21.584139,15.924808 
	C21.430470,15.860552 21.276817,15.796254 21.123158,15.731976 
	C21.317274,15.487075 21.513140,15.026425 21.705254,15.027986 
	C37.333652,15.154880 52.961758,15.317790 68.776306,15.868992 
z"/>
<path fill="#070608" opacity="1.000000" stroke="none" 
	d="
M234.569626,156.322159 
	C235.012131,171.023102 235.134857,185.992981 235.225494,201.426910 
	C234.799057,201.488647 234.059647,201.085846 234.060211,200.684097 
	C234.080765,185.986359 234.170013,171.288727 234.569626,156.322159 
z"/>
<path fill="#090709" opacity="1.000000" stroke="none" 
	d="
M446.454681,162.658020 
	C446.085480,147.614517 446.029236,132.297302 446.045593,116.519714 
	C446.398773,116.620934 446.924866,117.182861 446.924133,117.744118 
	C446.905090,132.624237 446.831726,147.504288 446.454681,162.658020 
z"/>
<path fill="#050307" opacity="1.000000" stroke="none" 
	d="
M294.025055,228.162750 
	C291.006775,228.102386 287.988495,228.042023 284.523895,227.914398 
	C284.973145,227.564148 285.867920,227.037613 286.764404,227.034714 
	C300.187408,226.991104 313.610718,227.011292 327.033813,227.051239 
	C327.435028,227.052444 327.835144,227.431168 328.047729,227.898956 
	C321.548798,228.127975 315.237976,228.091934 308.006226,228.036011 
	C302.731934,228.064987 298.378479,228.113876 294.025055,228.162750 
z"/>
<path fill="#090709" opacity="1.000000" stroke="none" 
	d="
M328.573425,300.996063 
	C328.717377,292.993744 328.861359,284.991425 329.074524,276.528809 
	C329.406189,276.465912 329.899994,276.864716 329.897705,277.260620 
	C329.816223,291.358734 329.688324,305.456573 329.191650,319.498779 
	C328.744965,319.282410 328.673492,319.121735 328.602020,318.961029 
	C328.609558,318.211792 328.617126,317.462555 328.622986,316.001465 
	C328.527466,314.530884 328.433655,313.772095 328.480682,312.685181 
	C328.527649,311.900146 328.433777,311.443298 328.478882,310.552063 
	C328.603027,307.077179 328.588226,304.036621 328.573425,300.996063 
z"/>
<path fill="#050307" opacity="1.000000" stroke="none" 
	d="
M425.999420,439.004089 
	C418.909760,439.004089 412.319824,439.004089 405.729919,439.004089 
	C405.733795,438.752411 405.737671,438.500702 405.741577,438.249023 
	C418.579712,438.249023 431.417847,438.249023 444.255981,438.249023 
	C444.260468,438.500702 444.264954,438.752411 444.269470,439.004089 
	C438.346039,439.004089 432.422577,439.004089 425.999420,439.004089 
z"/>
<path fill="#090709" opacity="1.000000" stroke="none" 
	d="
M16.235081,532.992981 
	C16.175936,535.701904 16.116793,538.410767 16.072327,541.809814 
	C16.136301,542.664185 16.185595,542.828491 16.234890,542.992737 
	C16.171627,543.150452 16.108366,543.308167 15.971561,543.710022 
	C15.388563,541.529419 14.427443,539.100159 14.451549,536.680664 
	C14.534884,528.316467 14.961415,519.955627 15.562839,511.306549 
	C15.927713,514.383179 15.987045,517.746765 16.065145,522.010376 
	C16.134304,526.271240 16.184692,529.632141 16.235081,532.992981 
z"/>
<path fill="#090709" opacity="1.000000" stroke="none" 
	d="
M293.231384,203.344177 
	C304.399200,202.830444 315.822723,202.659409 327.610291,202.467346 
	C327.064301,202.958847 326.154541,203.915466 325.244171,203.916077 
	C314.658508,203.923065 304.072784,203.785873 293.231384,203.344177 
z"/>
<path fill="#050307" opacity="1.000000" stroke="none" 
	d="
M446.345825,436.759277 
	C446.033661,435.920624 446.046722,434.870941 446.101135,433.427917 
	C446.519409,426.657471 446.896362,420.280334 447.273315,413.903229 
	C447.689148,413.925018 448.104980,413.946777 448.520782,413.968567 
	C447.904205,421.495148 447.287628,429.021729 446.345825,436.759277 
z"/>
<path fill="#FFFEFD" opacity="1.000000" stroke="none" 
	d="
M120.002869,319.634399 
	C119.595787,320.047791 119.189232,320.027039 118.474854,319.938538 
	C118.121803,317.539703 118.076591,315.208618 118.098114,312.443420 
	C118.777710,314.406281 119.390556,316.803284 120.002869,319.634399 
z"/>
<path fill="#FFFEFD" opacity="1.000000" stroke="none" 
	d="
M21.533161,16.803331 
	C20.497896,18.471918 19.089283,20.179859 17.341349,21.934479 
	C18.387957,20.268333 19.773884,18.555510 21.533161,16.803331 
z"/>
<path fill="#FFFEFD" opacity="1.000000" stroke="none" 
	d="
M16.880581,545.418213 
	C17.910477,546.428650 18.961248,547.794983 20.019016,549.543396 
	C18.984495,548.541687 17.942976,547.157898 16.880581,545.418213 
z"/>
<path fill="#E4DFDD" opacity="1.000000" stroke="none" 
	d="
M16.344007,26.495819 
	C16.568829,29.130064 16.706650,32.206074 16.639353,35.607288 
	C16.375158,32.934189 16.316082,29.935888 16.344007,26.495819 
z"/>
<path fill="#FFFEFD" opacity="1.000000" stroke="none" 
	d="
M209.413452,112.868973 
	C208.086868,112.947563 207.041397,112.847336 205.510376,112.482971 
	C206.581406,112.375946 208.137970,112.533051 209.413452,112.868973 
z"/>
<path fill="#F4F0EF" opacity="1.000000" stroke="none" 
	d="
M15.590645,476.075378 
	C16.337532,475.979736 16.811502,475.994202 17.640957,476.015930 
	C17.503084,476.663147 17.009731,477.303070 16.186382,477.992493 
	C15.676835,477.423096 15.497283,476.804291 15.590645,476.075378 
z"/>
<path fill="#E4DFDD" opacity="1.000000" stroke="none" 
	d="
M17.002260,70.653763 
	C17.006765,71.003296 16.614399,71.039993 16.417431,71.045273 
	C16.176136,69.968307 16.131807,68.886055 16.202721,67.412064 
	C16.544561,68.114952 16.771158,69.209595 17.002260,70.653763 
z"/>
<path fill="#090709" opacity="1.000000" stroke="none" 
	d="
M446.828186,227.998215 
	C446.467285,228.242859 446.086456,228.197525 445.386780,228.003723 
	C445.648010,227.806244 446.228149,227.757248 446.828186,227.998215 
z"/>
<path fill="#CBC3C1" opacity="1.000000" stroke="none" 
	d="
M328.414246,319.044678 
	C328.673492,319.121735 328.744965,319.282410 328.815369,319.706573 
	C328.814331,319.970093 328.379852,319.900665 328.159851,319.892456 
	C327.946136,319.598450 328.041656,319.346497 328.414246,319.044678 
z"/>
<path fill="#E4DFDD" opacity="1.000000" stroke="none" 
	d="
M16.755299,22.057655 
	C16.994812,22.228506 16.931520,22.493082 16.587357,22.858137 
	C16.246279,22.676651 16.294947,22.407572 16.755299,22.057655 
z"/>
<path fill="#E4DFDD" opacity="1.000000" stroke="none" 
	d="
M16.364044,39.254513 
	C16.763308,39.196392 16.852074,39.461159 16.555754,39.896690 
	C16.383684,39.826275 16.344645,39.662922 16.364044,39.254513 
z"/>
<path fill="#FFFEFD" opacity="1.000000" stroke="none" 
	d="
M16.603487,532.877197 
	C16.184692,529.632141 16.134304,526.271240 16.163303,522.458618 
	C19.451155,525.390625 18.200384,529.076782 16.603487,532.877197 
z"/>
<path fill="#47704C" opacity="1.000000" stroke="none" 
	d="
M15.487967,331.148438 
	C16.043791,331.257874 16.460598,331.533325 16.992638,332.196411 
	C16.794054,333.039215 16.480234,333.494354 16.147333,334.177551 
	C15.880119,334.289703 15.631985,334.173767 15.503347,333.665283 
	C15.531547,332.620026 15.440248,331.967224 15.487967,331.148438 
z"/>
<path fill="#47704C" opacity="1.000000" stroke="none" 
	d="
M137.424515,495.473083 
	C138.502548,495.182251 139.968109,495.062164 141.697968,495.122192 
	C140.578873,495.416138 139.195450,495.529999 137.424515,495.473083 
z"/>
<path fill="#47704C" opacity="1.000000" stroke="none" 
	d="
M221.329681,495.461975 
	C221.903076,495.189453 222.768631,495.073853 223.911209,495.151001 
	C223.332764,495.435425 222.477310,495.527130 221.329681,495.461975 
z"/>
<path fill="#47704C" opacity="1.000000" stroke="none" 
	d="
M131.112091,495.484009 
	C131.673828,495.210052 132.535187,495.076477 133.680679,495.122986 
	C133.113770,495.410217 132.262756,495.517273 131.112091,495.484009 
z"/>
<path fill="#FFFEFD" opacity="1.000000" stroke="none" 
	d="
M16.457853,542.968872 
	C16.185595,542.828491 16.136301,542.664185 16.160950,542.253418 
	C16.614155,542.169983 16.993418,542.332886 17.372677,542.495850 
	C17.142056,542.645569 16.911436,542.795288 16.457853,542.968872 
z"/>
<path fill="#47704C" opacity="1.000000" stroke="none" 
	d="
M239.929932,495.497986 
	C240.019760,495.253754 240.261246,495.154510 240.863464,495.204346 
	C240.843338,495.449890 240.462479,495.546417 239.929932,495.497986 
z"/>
<path fill="#47704C" opacity="1.000000" stroke="none" 
	d="
M226.984940,495.480225 
	C226.981415,494.993927 227.260483,494.873322 227.817719,495.141418 
	C227.792465,495.593750 227.516357,495.699005 226.984940,495.480225 
z"/>
<path fill="#47704C" opacity="1.000000" stroke="none" 
	d="
M217.159042,495.426910 
	C216.879288,495.325562 216.580566,495.269257 216.525513,495.127563 
	C216.836685,494.975891 217.202911,494.965942 217.780457,495.132202 
	C217.807449,495.381744 217.623123,495.454987 217.159042,495.426910 
z"/>
<path fill="#47704C" opacity="1.000000" stroke="none" 
	d="
M117.622795,432.768036 
	C117.395966,432.724792 117.266396,432.411438 117.331627,432.027771 
	C117.590973,432.137604 117.655518,432.317780 117.622795,432.768036 
z"/>
<path fill="#47704C" opacity="1.000000" stroke="none" 
	d="
M328.373413,397.233826 
	C328.633972,397.145325 328.826874,397.308258 328.952362,397.512604 
	C328.997925,397.586823 328.882477,397.759888 328.653778,397.962708 
	C328.404419,397.858917 328.341736,397.680267 328.373413,397.233826 
z"/>
<path fill="#FFFEFD" opacity="1.000000" stroke="none" 
	d="
M131.058563,227.690491 
	C135.393143,227.749496 139.727722,227.808487 144.527649,227.959930 
	C140.912827,231.782394 136.230148,229.691360 131.241028,228.990112 
	C130.705795,228.216171 130.810059,227.927780 131.058563,227.690491 
z"/>
<path fill="#FFFEFD" opacity="1.000000" stroke="none" 
	d="
M136.830750,319.657837 
	C133.962204,320.021912 130.931229,320.085602 127.450226,320.078613 
	C129.995758,316.414551 133.338379,317.980133 136.830750,319.657837 
z"/>
<path fill="#FFFEFD" opacity="1.000000" stroke="none" 
	d="
M124.229263,228.381561 
	C125.998970,227.915878 127.995682,227.818359 130.615387,227.909943 
	C131.260101,228.388123 131.255478,228.676773 131.224518,228.964966 
	C128.968430,228.893219 126.712349,228.821472 124.229263,228.381561 
z"/>
<path fill="#47704C" opacity="1.000000" stroke="none" 
	d="
M131.169098,229.073761 
	C131.255478,228.676773 131.260101,228.388123 131.119507,227.897034 
	C131.000641,227.695023 131.052094,227.740707 131.055328,227.715607 
	C130.810059,227.927780 130.705795,228.216171 130.745758,228.763489 
	C130.745743,228.971329 130.863632,229.187363 130.863632,229.187363 
	C130.863632,229.187363 131.113678,229.182541 131.169098,229.073761 
z"/>
<path fill="#F6F5F4" opacity="1.000000" stroke="none" 
	d="
M242.070862,111.550827 
	C249.081955,111.224373 256.220428,111.274300 263.737732,111.497116 
	C261.250916,112.225494 258.379730,113.259247 255.520950,113.225998 
	C251.075623,113.174294 246.638718,112.396965 242.070862,111.550827 
z"/>
<path fill="#F6F5F4" opacity="1.000000" stroke="none" 
	d="
M271.104431,112.209763 
	C274.735657,111.736618 278.429077,111.704758 282.565796,111.786659 
	C279.227539,114.768372 275.261383,114.724022 271.104431,112.209763 
z"/>
<path fill="#F6F5F4" opacity="1.000000" stroke="none" 
	d="
M327.911255,175.037933 
	C328.317749,175.453644 328.402496,175.900604 328.359985,176.670624 
	C327.665466,176.769257 327.098175,176.544815 326.530914,176.320389 
	C326.883789,175.903320 327.236664,175.486252 327.911255,175.037933 
z"/>
<path fill="#F6F5F4" opacity="1.000000" stroke="none" 
	d="
M284.190491,112.164230 
	C284.362427,111.845627 284.734863,111.790588 285.302979,111.923401 
	C285.129425,112.216766 284.760223,112.322289 284.190491,112.164230 
z"/>
<path fill="#F6F5F4" opacity="1.000000" stroke="none" 
	d="
M272.742462,202.544785 
	C272.697937,202.793823 272.525787,202.778809 272.440674,202.791260 
	C272.499359,202.634399 272.643158,202.465073 272.742462,202.544785 
z"/>
<path fill="#F4F3F2" opacity="1.000000" stroke="none" 
	d="
M209.063629,167.569260 
	C209.800079,175.183182 210.054031,183.132858 210.196274,191.539795 
	C209.413895,191.415375 208.158447,190.830887 208.161194,190.252396 
	C208.196686,182.802765 208.411621,175.353989 209.063629,167.569260 
z"/>
<path fill="#FDFDFC" opacity="1.000000" stroke="none" 
	d="
M141.959930,202.649292 
	C139.290695,203.043518 136.583694,203.146042 133.435120,203.148148 
	C135.730057,199.716431 138.848068,201.321014 141.959930,202.649292 
z"/>
<path fill="#F4F3F2" opacity="1.000000" stroke="none" 
	d="
M210.195099,202.706940 
	C208.288910,203.057678 206.564545,203.108917 204.419968,203.061157 
	C205.925278,202.327835 207.850815,201.693527 210.148315,201.068405 
	C210.472519,201.520874 210.424713,201.964157 210.195099,202.706940 
z"/>
<path fill="#FDFDFC" opacity="1.000000" stroke="none" 
	d="
M118.084274,120.963753 
	C117.629509,120.244118 117.537468,119.483383 117.583458,118.358963 
	C118.410248,118.452995 119.099014,118.910728 119.787773,119.368462 
	C119.340851,119.886528 118.893921,120.404594 118.084274,120.963753 
z"/>
<path fill="#F4F3F2" opacity="1.000000" stroke="none" 
	d="
M209.902924,194.042587 
	C210.306747,194.456253 210.390656,194.901031 210.348572,195.667389 
	C209.658752,195.765518 209.094925,195.542023 208.531097,195.318527 
	C208.881729,194.903580 209.232361,194.488632 209.902924,194.042587 
z"/>
<path fill="#FAF7F5" opacity="1.000000" stroke="none" 
	d="
M328.339844,313.013336 
	C328.433655,313.772095 328.527466,314.530884 328.480469,315.651672 
	C321.523163,321.511963 313.564087,318.461487 306.149933,318.683716 
	C295.992981,318.988190 285.807068,318.158051 275.630890,318.033020 
	C264.315582,317.893982 252.994385,317.856079 241.681870,318.081635 
	C237.874832,318.157562 236.833481,316.871887 236.924316,313.206543 
	C237.151031,304.058685 237.032394,294.901245 236.969955,285.748169 
	C236.957779,283.961731 236.573532,282.177765 236.015610,280.123840 
	C235.668945,273.210754 235.667603,266.566498 235.781021,259.466034 
	C236.596756,257.314972 237.835846,255.640884 237.902359,253.921448 
	C238.145844,247.627029 238.207001,241.308105 237.922470,235.017151 
	C237.746918,231.135345 238.913025,229.859940 242.925812,229.910248 
	C259.787933,230.121719 276.654205,230.003036 293.518951,229.992508 
	C293.984680,229.992218 294.450348,229.848145 294.916046,229.771118 
	C294.743347,229.390274 294.570648,229.009415 294.211517,228.395645 
	C298.378479,228.113876 302.731934,228.064987 307.542419,228.104919 
	C309.339905,228.795364 310.641144,229.772720 312.029266,229.917542 
	C314.628387,230.188705 317.286438,229.835480 319.904694,229.994217 
	C327.003906,230.424637 327.001038,230.476990 327.001160,237.821457 
	C327.001373,251.431778 327.101166,265.043152 326.955841,278.651917 
	C326.890686,284.754150 326.218842,290.848755 326.092377,296.952393 
	C326.065063,298.270172 327.198975,299.611969 328.185730,300.969391 
	C328.588226,304.036621 328.603027,307.077179 328.195648,310.567078 
	C327.301819,311.356964 326.830139,311.697449 326.358429,312.037933 
	C327.018890,312.363068 327.679382,312.688202 328.339844,313.013336 
z"/>
<path fill="#47704C" opacity="1.000000" stroke="none" 
	d="
M125.024185,110.709518 
	C125.614235,110.416779 126.523705,110.236282 127.707642,110.293167 
	C127.102615,110.627632 126.223106,110.724709 125.024185,110.709518 
z"/>
<path fill="#F7F6F5" opacity="1.000000" stroke="none" 
	d="
M328.480682,312.685181 
	C327.679382,312.688202 327.018890,312.363068 326.358429,312.037933 
	C326.830139,311.697449 327.301819,311.356964 328.056702,311.001434 
	C328.433777,311.443298 328.527649,311.900146 328.480682,312.685181 
z"/>
</svg>